<?xml version="1.0" encoding="utf-8"?>
<!-- Generator: Adobe Illustrator 16.0.0, SVG Export Plug-In . SVG Version: 6.00 Build 0)  -->
<!DOCTYPE svg PUBLIC "-//W3C//DTD SVG 1.1//EN" "http://www.w3.org/Graphics/SVG/1.1/DTD/svg11.dtd">
<svg version="1.1" id="Layer_1" xmlns="http://www.w3.org/2000/svg" xmlns:xlink="http://www.w3.org/1999/xlink" x="0px" y="0px"
	 width="814px" height="263px" viewBox="-6.5 120.5 814 263" enable-background="new -6.5 120.5 814 263" xml:space="preserve">
<g>
	<path fill="#005FAF" stroke="#005FAF" d="M434.761,245.979c50.551-22.929,58.027-97.752-13.879-97.752h-83.271l-30.773,60.341
		h14.481l-36.809,144.216h96.546C451.491,353.385,483.169,270.446,434.761,245.979L434.761,245.979z M381.057,300.286H356.92
		l9.051-32.583H388.9C416.054,273.133,399.16,301.492,381.057,300.286z M395.539,230.893h-20.516l6.033-28.36h22.929
		C426.14,207.964,407.005,232.101,395.539,230.893L395.539,230.893z"/>
	<path fill="#005FAF" stroke="#005FAF" d="M632.437,225.29l31.611-55.807l-42.775-22.313l-5.58,6.887
		c-23.076-12.216-143.912,4.65-151.479,123.851c4.523,99.994,116.57,82.007,127.561,75.662l30.816-63.705
		c-30.182,19.88-91.982,29.424-94.596-30.294C533.415,210.325,591.558,191.936,632.437,225.29z M790.187,148.227h-97.184
		l-30.893,58.535h15.869l-73.238,146.021h70.891l14.555-35.221h43.518l1.084,35.221h65.26L790.187,148.227L790.187,148.227z
		 M709.904,270.143l23.799-56.809l1.084,56.809H709.904L709.904,270.143z"/>
	<g>
		<path fill="#005FAF" d="M183.286,343.018l3.775-1.095l-4.141-5.723L183.286,343.018z M121.307,342.044l-0.73,5.114
			c1.879-0.184,4.192,1.436,5.115-2.192C125.622,342.139,123.47,341.984,121.307,342.044L121.307,342.044z M151.385,341.923
			c-0.313-1.394-1.476-2.419-4.385-1.461l0.975,5.234C150.365,345.167,151.593,343.753,151.385,341.923L151.385,341.923z
			 M83.438,337.639l-1.163,4.65c1.869,0.078,4.058,1.594,5.298-1.162C87.656,339.4,87.727,337.68,83.438,337.639L83.438,337.639z
			 M148.827,349.594l0.854,5.358c1.995,0.051,3.814-1.148,3.287-3.652C152.459,348.892,150.437,349.273,148.827,349.594z"/>
		<path fill="#005FAF" d="M228.016,150.985c-64.479-32.849-141.486-31.935-202.923-1.433c-31.681,55.771-32.689,133.801,0,202.913
			c67.685,34.251,142.544,31.995,203.399,1.433C257.092,295.221,261.816,224.614,228.016,150.985z M119.116,317.515l-3.822,0.043
			c-0.946-10.562-3.471-19.438-8.887-26.23c-24.833-31.142-75.598-7.695-62.554-60.621
			C50.636,203.649,127.999,187.691,119.116,317.515L119.116,317.515z M43.946,265.241c5.423,11.037,39.396,12.845,51.188,21.294
			c18.707,13.4,16.021,31.027,16.021,31.027h-4.412c-8.686-26.623-33.063-5.544-52.588-12.714
			C41.897,300.49,32.996,281.59,43.946,265.241z M105.842,352.031l1.827-14.49l3.287,0.244l-1.462,15.95
			c-1.474,7.026-11.95,6.087-13.272-0.608l1.704-16.561l3.896,0.611l-1.704,13.88C100.335,355.65,104.943,355.375,105.842,352.031z
			 M88.348,355.988l-3.748-0.905c0.439-3.097,4.113-9.398-3.146-9.398l-2.021,8.236l-4.135-0.775l4.393-19.771
			c10.738,1.17,11.678,4.158,11.891,7.366c-0.424,2.487-1.087,4.225-3.23,4.65C90.859,347.667,88.379,352.439,88.348,355.988z
			 M64.545,333.842c-1.033,1.371-3.101,6.158-3.399,9.974c-0.318,4.043,3.565,3.192,4.533,2.72c0.78-0.379,1.359-3.627,1.359-3.627
			l-2.72-0.906l0.907-2.718l6.121,2.04l-2.946,10.201l-2.493-0.682l0.227-1.587c-3.053,1.391-8.64,0.348-9.295-3.173
			c-0.656-2.829,1.33-11.406,4.533-15.413c3.112-3.896,10.696-0.088,10.881,2.267c0.184,2.346-0.742,4.986-0.742,4.986l-2.854-0.538
			c0,0,0.175-0.848,0.424-2.184C69.343,333.787,65.653,332.37,64.545,333.842L64.545,333.842z M120.211,350.446l-0.729,8.769
			l-3.044-0.121l1.096-20.823c7.601,0.158,11.957,1.21,11.812,6.577C128.892,352.179,122.954,350.531,120.211,350.446
			L120.211,350.446z M127.788,317.561h-5.092c-0.452-18.032,3.016-51.015-6.459-75.288c-7.179-18.401-25.346-26.679-29.372-41.543
			c-6.374-23.527,4.474-48.983,40.923-50.944c31.599,3.244,41.307,27.639,35.917,50.352c-9.267,22.709-18.535,19.445-30.074,42.066
			C124.206,266.452,127.795,298.221,127.788,317.561L127.788,317.561z M184.261,350.934l-3.531,1.218l-1.098-20.944l4.141-1.095
			l10.229,17.29l-2.802,1.827l-3.41-4.869l-3.896,1.46L184.261,350.934L184.261,350.934z M143.063,317.561h-4.073
			c3.356-46.311,61.553-36.249,66.871-52.319c9.198,15.932,5.892,29.365-3.713,36.251
			C178.281,318.612,155.396,288.824,143.063,317.561z M164.657,340.95l1.827,9.62c1.137,2.216,1.908,1.806,3.652,1.583
			c2.022-1.464,1.601-2.89,1.218-4.75l3.531-0.486c0.921,6.97-2.393,7.681-4.87,8.158c-5.313,0.381-6.355-0.653-7.793-7.549
			c-0.837-5.901-2.284-12.134,2.679-13.272c8.146-1.244,7.665,2.423,8.401,4.992l-3.531,0.61c-0.563-2.208-1.375-3.083-3.166-2.921
			C164.974,337.685,164.304,338.898,164.657,340.95L164.657,340.95z M157.23,350.934c0.169,3.033-0.86,5.047-2.802,5.724
			l-8.28,1.704l-3.287-20.092c1.698-0.276,10.029-3.328,12.054,2.194c0.999,3.372-0.036,4.581-1.218,6.087
			C155.937,347.271,156.694,349.015,157.23,350.934L157.23,350.934z M135.965,250.109c18.447-51.941,60.66-42.763,70.022-19.4
			c12.825,46.876-28.475,34.021-54.93,53.243c-9.999,8.696-15.261,18.673-15.338,33.797h-4.533
			C130.914,287.285,130.421,265.715,135.965,250.109z"/>
	</g>
</g>
</svg>
