<?xml version="1.0" encoding="utf-8"?>
<!-- Generator: Adobe Illustrator 16.0.0, SVG Export Plug-In . SVG Version: 6.00 Build 0)  -->
<!DOCTYPE svg PUBLIC "-//W3C//DTD SVG 1.1//EN" "http://www.w3.org/Graphics/SVG/1.1/DTD/svg11.dtd">
<svg version="1.1" id="Layer_1" xmlns="http://www.w3.org/2000/svg" xmlns:xlink="http://www.w3.org/1999/xlink" x="0px" y="0px"
	 width="904.455px" height="263px" viewBox="146.615 39.5 904.455 263" enable-background="new 146.615 39.5 904.455 263"
	 xml:space="preserve">
<g transform="translate(0.000000,342.000000) scale(0.100000,-0.100000)">
	<path fill="#0066FF" d="M2714.099,2973.105c-215.19-15.635-420.698-87.114-610.571-212.954
		c-119.135-78.926-265.82-225.61-344.746-344.746c-93.076-141.475-154.883-289.648-192.852-461.65
		c-14.15-68.506-16.387-99.033-16.387-245.718c0-146.689,2.236-177.217,16.387-245.713
		c59.565-274.756,178.701-487.705,381.973-680.557c329.116-313.477,813.843-422.187,1253.906-282.207
		c379.746,119.873,691.724,428.144,818.306,807.148c47.661,142.949,60.317,227.842,60.317,401.328
		c0,129.561-2.979,165.303-17.129,236.777c-79.668,396.875-327.617,722.266-682.793,897.988
		c-163.066,80.415-295.605,116.899-480.264,131.05c-55.103,3.721-102.012,6.699-104.243,6.699
		C2793.771,2979.809,2757.282,2976.831,2714.099,2973.105z M3395.402,2189.048c67.759-23.086,136.26-62.549,152.642-87.866
		c9.683-14.146,11.172-72.969,13.403-381.978c1.489-200.288,0-372.29-2.231-381.235c-5.215-23.076-16.382-21.582-77.441,8.945
		c-113.179,56.592-234.546,69.238-384.209,40.957c-43.184-8.945-172.749-46.914-288.901-85.635
		c-246.465-81.904-299.331-93.809-414.741-94.57c-96.802-0.742-169.028,14.893-244.976,53.623
		c-81.157,40.947-75.205,5.947-75.205,434.844c0,261.343,2.236,376.011,8.188,381.968c5.957,5.957,26.811-1.489,76.694-27.549
		c93.071-48.398,161.577-63.291,264.331-57.334c93.823,5.21,165.303,23.828,336.558,87.861
		c181.685,67.759,240.503,87.861,330.605,111.689c72.227,19.36,91.582,21.592,163.813,19.36
		C3318.713,2209.892,3348.493,2204.682,3395.402,2189.048z"/>
	<path fill="#0066FF" d="M4583.034,1704.326v-651.523h274.014c311.24,0,325.391,2.227,439.312,55.84
		c190.61,90.098,313.472,237.529,363.359,434.854c21.597,84.873,25.322,205.493,8.188,287.397
		c-24.57,116.157-86.372,236.782-169.019,326.133c-47.656,52.124-151.899,122.119-228.594,154.136
		c-99.028,40.952-128.813,44.673-420.693,44.673h-266.567V1704.326z M5128.825,2069.165
		c64.033-16.382,110.938-43.184,164.551-93.818c83.398-77.437,122.119-177.212,113.921-293.364
		c-7.446-103.496-49.883-192.109-126.582-261.348c-80.415-73.721-143.701-92.334-311.978-92.334h-117.646v376.025v376.011h117.646
		C5049.152,2080.337,5099.782,2076.611,5128.825,2069.165z"/>
	<path fill="#0066FF" d="M6605.354,2343.178c-162.314-34.253-301.553-142.217-373.037-288.159
		c-60.313-122.856-58.828-104.243-61.807-579.297l-2.236-422.92h134.033h134.775l1.484,136.25l2.236,135.527l277.725,2.227
		l277.002,1.494v-80.42c0-44.678,2.227-106.475,4.463-137.754l5.205-57.324h132.549h133.281v385.693
		c0,215.185-3.721,408.037-7.441,437.075c-27.559,192.852-140.732,346.982-314.971,428.145
		C6842.131,2353.603,6718.527,2367.749,6605.354,2343.178z M6834.689,2055.766c119.883-55.107,167.529-155.625,168.291-356.665
		v-87.851h-282.949h-282.949v87.851c0,105.732,9.678,171.255,32.754,221.89c32.773,71.484,99.033,128.071,174.98,149.663
		C6696.936,2085.547,6784.807,2078.1,6834.689,2055.766z"/>
	<path fill="#0066FF" d="M8199.533,2343.921c-214.434-46.162-389.414-223.379-428.135-434.844
		c-8.936-48.398-19.365-751.294-11.914-813.843l5.215-42.432h128.808c123.604,0,128.828,0.742,133.291,15.635
		c2.979,8.184,2.979,148.174,0,310.488c-8.193,467.607,1.484,536.108,89.346,618.76c61.807,58.823,110.948,78.179,193.594,78.926
		c61.055,0,72.227-2.231,116.162-23.828c59.561-29.785,111.689-82.646,139.248-142.217c18.613-40.21,20.098-51.377,25.303-206.24
		c3.721-90.098,3.721-259.131,1.494-376.025c-2.979-117.656-2.236-227.1,0.742-244.238l5.205-31.26h129.57h129.561v422.92v422.187
		l-25.322,72.227c-31.27,92.329-62.549,144.448-125.84,211.465C8574.074,2322.329,8382.717,2383.388,8199.533,2343.921z"/>
	<path fill="#0066FF" d="M9794.475,2344.668c-178.701-35.742-331.348-160.088-400.605-326.88
		c-41.689-101.265-45.41-143.706-45.41-574.819v-390.166h134.023h134.023v137.744v137.754h279.229h279.219v-53.623
		c0-29.785,2.246-92.314,5.215-137.744l4.473-84.131h133.271h132.549v382.725c0,226.348-2.988,405.791-7.451,439.297
		C10398.332,2191.279,10101.984,2405.727,9794.475,2344.668z M9982.102,2065.444c86.377-26.807,155.625-96.055,182.432-180.938
		c7.441-25.317,13.408-78.926,15.635-155.625l4.473-117.632h-285.186h-284.424l3.721,110.185
		c4.463,134.028,12.646,174.243,49.883,231.572C9736.389,2057.998,9862.229,2103.418,9982.102,2065.444z"/>
</g>
</svg>
