<?xml version="1.0" encoding="utf-8"?>
<!-- Generator: Adobe Illustrator 16.0.0, SVG Export Plug-In . SVG Version: 6.00 Build 0)  -->
<!DOCTYPE svg PUBLIC "-//W3C//DTD SVG 1.1//EN" "http://www.w3.org/Graphics/SVG/1.1/DTD/svg11.dtd">
<svg version="1.1" id="Layer_1" xmlns="http://www.w3.org/2000/svg" xmlns:xlink="http://www.w3.org/1999/xlink" x="0px" y="0px"
	 width="144px" height="144px" viewBox="0 0 144 144" enable-background="new 0 0 144 144" xml:space="preserve">
<path fill="#0FA75B" d="M118.884,72.729c-1.644-1.368-3.337-2.8-5.376-3.2c-2.021-0.393-4.097,0.306-6.154,0.188
	c-1.907-0.113-3.761-0.921-5.667-0.794c-1.852,0.119-3.539,1.109-5.162,2.072c-0.69-0.499-1.071-1.56-0.819-2.417
	c0.25-0.844,0.901-1.507,1.627-1.935c0.732-0.414,1.551-0.634,2.346-0.833c0.934-0.243,1.755-0.621,2.687-0.892
	c0.938-0.263,1.917-0.862,2.137-1.878c0.132-0.645-0.079-1.333-0.434-1.875c-0.36-0.544-0.855-0.956-1.341-1.358
	c-3.523-2.921-7.21-5.603-10.987-8.143c-0.457-0.308-0.928-0.626-1.223-1.113c-0.294-0.486-0.349-1.198,0.017-1.623
	c0.278-0.319,0.711-0.412,1.111-0.338c0.392,0.066,0.757,0.282,1.106,0.49l9.262,5.445c0.516,0.297,1.134-0.128,1.091-0.757
	c-0.034-0.503-0.352-0.916-0.652-1.304c-2.313-2.979-4.447-6.13-6.376-9.433c-0.274-0.479-0.559-0.979-0.622-1.54
	c-0.064-0.56,0.152-1.201,0.622-1.435c0.388-0.186,0.85-0.064,1.203,0.192c0.347,0.259,0.602,0.638,0.851,1.001
	c2.126,3.084,5.199,7.044,7.67,9.802c0.189,0.213,0.506-0.035,0.388-0.301l-4.922-9.883c-0.155-0.313-0.233-0.664-0.197-1.01
	c0.076-1.044,0.936-1.163,1.508-0.841c0.367,0.202,0.637,0.556,0.899,0.91c2.174,3.009,3.587,6.748,6.109,9.346
	c0.31,0.324,0.826,0.013,0.738-0.44l-1.341-7.577c-0.061-0.347-0.044-0.716,0.094-1.032c0.455-1.082,1.543-0.701,1.971,0.021
	c0.337,0.544,0.399,1.226,0.485,1.859c0.446,3.217,1.761,6.223,3.25,9.046c1.476,2.83,2.459,6.049,4.467,8.476
	c1.383,1.678,4.985,4.428,9.604,7.588V42.07c0-10.244-3.248-19.597-8.595-26.747c-7.494,4.471-20.014,11.844-23.954,13.624
	c-1.91,0.854-3.912,1.738-5.245,3.447c-1.325,1.697-1.807,3.992-2.928,5.86c-1.041,1.732-2.611,3.066-3.469,4.918
	c-0.826,1.793-0.883,3.873-0.919,5.873c-0.737,0.398-1.779,0.217-2.338-0.437c-0.56-0.66-0.768-1.602-0.743-2.497
	c0.029-0.891,0.271-1.76,0.512-2.615c0.266-1,0.377-1.961,0.629-2.967c0.259-1.01,0.268-2.228-0.444-2.937
	c-0.447-0.457-1.103-0.596-1.707-0.531c-0.621,0.066-1.199,0.32-1.768,0.575c-4.086,1.845-8.087,3.957-11.993,6.221
	c-0.479,0.274-0.973,0.561-1.514,0.592c-0.535,0.029-1.134-0.268-1.289-0.82c-0.126-0.417,0.033-0.878,0.293-1.213
	c0.248-0.332,0.602-0.567,0.944-0.793l8.982-5.964c0.49-0.331,0.468-1.124-0.061-1.396c-0.414-0.227-0.909-0.129-1.358-0.041
	c-3.554,0.681-7.143,1.101-10.736,1.256c-0.536,0.026-1.068,0.038-1.559-0.181c-0.475-0.226-0.887-0.743-0.827-1.307
	c0.035-0.453,0.372-0.829,0.75-1.028c0.378-0.196,0.808-0.25,1.229-0.301c3.521-0.448,8.234-1.344,11.674-2.277
	c0.267-0.08,0.233-0.498-0.043-0.516L62,29.545c-0.316-0.019-0.644-0.122-0.909-0.323c-0.784-0.6-0.459-1.461,0.084-1.842
	c0.357-0.247,0.763-0.323,1.18-0.383c3.499-0.537,7.194,0.008,10.541-1.053c0.412-0.133,0.423-0.768,0.017-0.921l-6.744-2.521
	c-0.299-0.117-0.59-0.318-0.777-0.605c-0.627-0.973,0.217-1.799,1.009-1.841c0.601-0.039,1.169,0.243,1.73,0.479
	c2.798,1.188,5.85,1.462,8.859,1.482c3.002,0.015,6.079,0.703,9.018,0.042c5.141-1.159,17.303-8.69,26.175-14.711
	c-5.277-3.771-11.482-5.946-18.122-5.946H51.009c-0.186,9.322-0.525,22.625-1.028,26.82c-0.26,2.219-0.566,4.538,0.139,6.639
	c0.697,2.094,2.287,3.693,3.226,5.671c0.861,1.843,1.144,3.997,2.204,5.715c1.023,1.677,2.659,2.767,4.243,3.798
	c-0.061,0.894-0.718,1.781-1.524,1.978c-0.809,0.185-1.66-0.087-2.366-0.559c-0.7-0.471-1.28-1.132-1.842-1.781
	c-0.662-0.755-1.375-1.339-2.057-2.076c-0.683-0.734-1.644-1.362-2.573-1.058c-0.585,0.195-1.026,0.741-1.282,1.346
	c-0.258,0.606-0.335,1.274-0.411,1.935c-0.574,4.769-0.89,9.56-1.024,14.363c-0.027,0.581-0.043,1.188-0.286,1.705
	c-0.245,0.524-0.778,0.932-1.305,0.799c-0.387-0.101-0.68-0.468-0.82-0.874c-0.143-0.403-0.154-0.852-0.162-1.285l-0.281-11.403
	c-0.013-0.628-0.664-0.999-1.145-0.646c-0.393,0.29-0.563,0.793-0.719,1.262c-1.229,3.667-2.682,7.242-4.359,10.692
	c-0.242,0.507-0.505,1.021-0.92,1.368c-0.422,0.335-1.032,0.458-1.468,0.122c-0.34-0.267-0.477-0.759-0.434-1.219
	c0.021-0.453,0.196-0.889,0.372-1.304c1.398-3.531,3.043-8.387,4.006-12.081c0.077-0.29-0.284-0.462-0.427-0.213l-5.451,9.555
	c-0.177,0.297-0.425,0.546-0.712,0.694c-0.88,0.443-1.4-0.299-1.436-0.998c-0.02-0.444,0.126-0.884,0.279-1.301
	c1.317-3.547,3.606-6.738,4.436-10.399c0.093-0.448-0.405-0.778-0.732-0.47l-5.386,5.05c-0.252,0.233-0.555,0.385-0.88,0.419
	c-1.091,0.111-1.331-1.095-0.965-1.861c0.27-0.58,0.777-0.974,1.248-1.379c2.351-2.027,4.098-4.758,5.612-7.562
	c1.521-2.813,3.605-5.342,4.554-8.434c1.621-5.344,1.689-20.266,1.319-31.549C25.948,7.635,15.147,23.375,15.147,42.07v20.976
	c5.32,3.848,9.661,7.048,11.092,8.23c1.647,1.359,3.346,2.795,5.389,3.194c2.022,0.392,4.094-0.309,6.151-0.184
	c1.904,0.108,3.763,0.919,5.673,0.793c1.849-0.125,3.536-1.114,5.16-2.08c0.683,0.5,1.068,1.564,0.817,2.418
	c-0.254,0.842-0.903,1.514-1.625,1.932c-0.731,0.421-1.551,0.636-2.347,0.841c-0.941,0.242-1.766,0.623-2.696,0.884
	c-0.931,0.273-1.91,0.869-2.125,1.885c-0.148,0.646,0.078,1.335,0.429,1.874c0.363,0.544,0.856,0.958,1.348,1.36
	c3.521,2.911,7.206,5.598,10.984,8.141c0.456,0.301,0.927,0.631,1.224,1.115c0.289,0.485,0.352,1.194-0.018,1.624
	c-0.279,0.318-0.713,0.404-1.11,0.331c-0.396-0.072-0.759-0.279-1.109-0.488l-9.27-5.444c-0.506-0.301-1.122,0.133-1.084,0.755
	c0.037,0.512,0.354,0.921,0.649,1.308c2.32,2.979,4.453,6.129,6.382,9.431c0.273,0.475,0.558,0.979,0.619,1.543
	c0.068,0.561-0.146,1.203-0.619,1.427c-0.392,0.189-0.854,0.065-1.205-0.19c-0.343-0.251-0.604-0.637-0.854-0.998
	c-2.121-3.078-5.193-7.048-7.664-9.801c-0.189-0.213-0.518,0.035-0.386,0.299l4.92,9.884c0.147,0.318,0.223,0.66,0.195,1.012
	c-0.083,1.047-0.934,1.162-1.507,0.839c-0.365-0.2-0.65-0.555-0.899-0.908c-2.172-3.013-3.588-6.75-6.11-9.341
	c-0.311-0.329-0.824-0.015-0.737,0.44l1.34,7.569c0.065,0.346,0.035,0.711-0.104,1.036c-0.445,1.079-1.528,0.698-1.966-0.022
	c-0.331-0.549-0.398-1.215-0.482-1.859c-0.45-3.223-1.755-6.222-3.241-9.05c-1.484-2.826-2.473-6.047-4.479-8.47
	c-1.47-1.784-5.555-5.042-10.733-8.817v26.378c0,10.468,3.388,20.01,8.948,27.217c7.369-4.406,20.659-12.252,24.73-14.101
	c1.899-0.856,3.908-1.736,5.253-3.445c1.321-1.696,1.806-3.996,2.923-5.861c1.039-1.735,2.615-3.069,3.465-4.921
	c0.828-1.792,0.882-3.868,0.925-5.867c0.737-0.396,1.781-0.219,2.339,0.438c0.56,0.66,0.757,1.601,0.733,2.494
	c-0.027,0.888-0.257,1.758-0.501,2.615c-0.275,0.998-0.389,1.958-0.636,2.971c-0.251,1.005-0.261,2.219,0.447,2.931
	c0.444,0.458,1.102,0.603,1.72,0.532c0.604-0.068,1.181-0.318,1.757-0.574c4.098-1.848,8.089-3.964,11.998-6.225
	c0.478-0.276,0.966-0.557,1.507-0.591c0.535-0.027,1.133,0.269,1.295,0.821c0.11,0.423-0.035,0.882-0.293,1.216
	c-0.252,0.331-0.602,0.569-0.944,0.797l-8.982,5.956c-0.504,0.33-0.47,1.124,0.058,1.396c0.419,0.219,0.903,0.137,1.358,0.046
	c3.556-0.684,7.142-1.104,10.737-1.26c0.526-0.021,1.067-0.039,1.551,0.183c0.483,0.22,0.896,0.741,0.834,1.308
	c-0.044,0.451-0.372,0.823-0.75,1.022c-0.388,0.2-0.808,0.249-1.228,0.303c-3.53,0.452-8.237,1.346-11.677,2.281
	c-0.267,0.074-0.235,0.496,0.043,0.514l10.381,0.329c0.313,0.018,0.636,0.118,0.902,0.323c0.792,0.591,0.459,1.458-0.081,1.836
	c-0.353,0.244-0.776,0.331-1.189,0.391c-3.491,0.534-7.184-0.019-10.53,1.046c-0.409,0.13-0.421,0.767-0.014,0.924l6.74,2.517
	c0.306,0.116,0.588,0.323,0.771,0.609c0.633,0.974-0.212,1.797-1.011,1.84c-0.595,0.04-1.163-0.24-1.721-0.478
	c-2.797-1.194-5.858-1.467-8.871-1.483c-3.003-0.021-6.065-0.709-9.011-0.05c-5.249,1.189-17.829,9.024-26.741,15.102
	c5.155,3.53,11.151,5.563,17.559,5.563H94.06c0.021,0,0.043-0.002,0.064-0.002c0.183-9.322,0.525-22.628,1.023-26.821
	c0.265-2.217,0.576-4.532-0.13-6.634c-0.7-2.099-2.299-3.691-3.229-5.672c-0.867-1.848-1.146-3.998-2.201-5.717
	c-1.021-1.672-2.66-2.766-4.25-3.801c0.055-0.892,0.727-1.78,1.531-1.97c0.807-0.191,1.661,0.084,2.356,0.554
	c0.706,0.47,1.284,1.13,1.852,1.783c0.662,0.756,1.377,1.333,2.057,2.071c0.679,0.742,1.642,1.365,2.561,1.059
	c0.594-0.193,1.033-0.738,1.284-1.345c0.26-0.605,0.341-1.272,0.419-1.932c0.566-4.77,0.877-9.561,1.024-14.365
	c0.021-0.582,0.036-1.184,0.286-1.701c0.241-0.528,0.78-0.938,1.298-0.81c0.397,0.1,0.689,0.472,0.826,0.881
	c0.147,0.405,0.159,0.853,0.166,1.281l0.273,11.406c0.016,0.632,0.673,1.004,1.149,0.645c0.393-0.289,0.564-0.787,0.718-1.26
	c1.23-3.668,2.686-7.245,4.363-10.693c0.238-0.504,0.506-1.014,0.919-1.36c0.424-0.343,1.032-0.462,1.465-0.128
	c0.334,0.269,0.473,0.762,0.437,1.221c-0.027,0.452-0.198,0.886-0.37,1.3c-1.397,3.53-3.036,8.39-4.017,12.081
	c-0.068,0.291,0.291,0.466,0.438,0.216l5.451-9.549c0.175-0.307,0.421-0.549,0.709-0.699c0.877-0.447,1.395,0.298,1.438,0.997
	c0.02,0.442-0.13,0.888-0.283,1.305c-1.325,3.541-3.605,6.728-4.433,10.392c-0.102,0.457,0.405,0.78,0.732,0.471l5.389-5.046
	c0.247-0.231,0.553-0.39,0.873-0.424c1.095-0.107,1.328,1.096,0.975,1.866c-0.277,0.578-0.791,0.976-1.258,1.379
	c-2.347,2.026-4.095,4.752-5.615,7.561c-1.517,2.806-3.609,5.337-4.548,8.43c-1.608,5.285-1.692,19.939-1.336,31.179
	c14.134-5.17,24.385-20.59,24.385-38.81v-22.29C124.082,76.475,120.241,73.848,118.884,72.729z"/>
</svg>
