<?xml version="1.0" encoding="utf-8"?>
<!-- Generator: Adobe Illustrator 16.0.0, SVG Export Plug-In . SVG Version: 6.00 Build 0)  -->
<!DOCTYPE svg PUBLIC "-//W3C//DTD SVG 1.1//EN" "http://www.w3.org/Graphics/SVG/1.1/DTD/svg11.dtd">
<svg version="1.1" id="Layer_1" xmlns="http://www.w3.org/2000/svg" xmlns:xlink="http://www.w3.org/1999/xlink" x="0px" y="0px"
	 width="144px" height="144px" viewBox="0 0 144 144" enable-background="new 0 0 144 144" xml:space="preserve">
<g>
	<path fill="#FFFFFF" d="M17.833,2.659l13.453,0.002l-0.01,51.42l-13.451-0.002L17.833,2.659z"/>
	<path fill="#FFFFFF" d="M75.63,21.292c-0.004,11.583-8.128,19.845-19.5,19.843c-3.358,0-6.436-0.885-9.061-2.471l-0.002,15.416
		l-12.66-0.002l0.01-51.38l8.706,0.002l1.605,2.954c3.058-2.645,6.992-4.172,11.41-4.17C67.506,1.484,75.632,9.71,75.63,21.292z
		 M62.743,21.291c0.002-4.885-3.525-8.509-8.321-8.509c-4.794-0.002-8.321,3.623-8.321,8.507c0,4.883,3.524,8.508,8.32,8.509
		C59.188,29.798,62.743,26.174,62.743,21.291z"/>
	<path fill="#FFFFFF" d="M77.694,72.911l-0.006,24.477h-13.44l0.006-22.817c0-4.074-1.502-6.042-4.357-6.043
		c-3.694-0.001-5.588,2.544-5.588,7.458l-0.006,21.4l-13.091-0.002l0.006-22.817c0-3.952-1.491-6.041-4.305-6.042
		c-3.645-0.001-5.64,2.605-5.642,7.457l-0.003,21.4L17.825,97.38l0.006-39.026l9.453,0.001l1.913,4.194
		c2.819-3.285,6.912-5.347,11.409-5.345c4.757,0,8.763,2.137,11.191,5.745c2.805-3.529,7.125-5.743,11.985-5.742
		C72.142,57.208,77.696,63.721,77.694,72.911z"/>
	<path fill="#FFFFFF" d="M124.604,58.382l-0.006,39.027l-10.396-0.004l-1.149-2.757c-3.196,2.586-7.243,4.079-11.776,4.079
		c-11.935-0.002-20.462-8.711-20.46-20.838c0.002-12.087,8.533-20.689,20.466-20.686c4.596,0,8.704,1.536,11.926,4.196l1.374-3.019
		L124.604,58.382z M111.813,77.924c0.002-5.064-3.699-8.87-8.731-8.87c-5.069-0.001-8.738,3.802-8.74,8.868
		c0,5.097,3.699,8.9,8.736,8.903C108.11,86.825,111.813,83.021,111.813,77.924z"/>
	<path fill="#FFFFFF" d="M43.245,101.49l-0.002,12.302h-5.222c-4.76-0.004-6.75,2.085-6.75,7.064l-0.001,21.413l-13.444-0.002
		l0.006-40.595h9.005l2.096,4.331c2.752-3.182,6.104-4.514,10.75-4.514H43.245z"/>
	<path fill="#FFFFFF" d="M88.661,101.688l-0.006,39.027l-10.397-0.002l-1.147-2.76c-3.196,2.589-7.244,4.081-11.775,4.081
		c-11.935-0.004-20.464-8.712-20.462-20.841c0.001-12.085,8.533-20.687,20.468-20.685c4.595,0,8.7,1.537,11.923,4.196l1.375-3.02
		L88.661,101.688z M75.87,121.232c0-5.067-3.7-8.872-8.735-8.874c-5.066,0-8.735,3.805-8.735,8.869
		c-0.002,5.097,3.696,8.901,8.733,8.901C72.166,130.131,75.868,126.328,75.87,121.232z"/>
	<path fill="#FFFFFF" d="M107.35,143.317c-10.637-0.002-17.101-5.621-17.224-14.075l12.939,0.002
		c0.003,2.853,1.984,4.166,4.534,4.166c1.966,0,3.833-1.001,3.833-3.017c-0.003-2.252-2.954-2.896-6.705-3.515
		c-6.049-0.981-14.071-2.811-14.071-12.274c0-7.823,6.671-12.872,16.671-12.87c9.937,0,16.377,5.287,16.528,13.196l-12.59-0.002
		c0-2.492-1.674-3.651-4.111-3.651c-2.152-0.002-3.6,1.065-3.6,2.876c0,2.221,2.983,2.737,6.692,3.397
		c6.16,1.1,14.359,2.379,14.357,12.276c0,8.157-6.885,13.492-17.259,13.49H107.35z"/>
</g>
<path fill="#29B473" d="M124.604,38.758c0,8.366-6.279,15.148-14.027,15.148H92.791c-7.746,0-14.024-6.782-14.024-15.148v-22.3
	c0-8.367,6.278-15.148,14.024-15.148h17.786c7.748,0,14.027,6.781,14.027,15.148V38.758z"/>
<g>
	<path fill="none" d="M120.289,28.048c-0.649-0.499-1.321-1.027-2.133-1.172c-0.803-0.144-1.624,0.111-2.44,0.068
		c-0.758-0.04-1.493-0.337-2.25-0.291c-0.733,0.045-1.403,0.408-2.05,0.761c-0.272-0.183-0.423-0.572-0.324-0.884
		c0.1-0.312,0.358-0.556,0.646-0.71c0.29-0.155,0.614-0.233,0.933-0.308c0.367-0.089,0.695-0.228,1.065-0.326
		c0.371-0.098,0.761-0.316,0.847-0.69c0.053-0.235-0.032-0.49-0.171-0.687c-0.144-0.199-0.34-0.351-0.533-0.498
		c-1.399-1.07-2.862-2.055-4.361-2.985c-0.181-0.112-0.367-0.231-0.484-0.409c-0.115-0.179-0.14-0.439,0.008-0.595
		c0.109-0.117,0.284-0.15,0.439-0.123c0.157,0.026,0.302,0.103,0.441,0.179l3.675,1.997c0.203,0.108,0.449-0.048,0.434-0.277
		c-0.016-0.187-0.142-0.338-0.261-0.479c-0.918-1.092-1.765-2.248-2.53-3.458c-0.109-0.176-0.223-0.36-0.246-0.565
		c-0.028-0.206,0.06-0.44,0.246-0.526c0.155-0.068,0.338-0.024,0.478,0.07c0.139,0.095,0.24,0.234,0.338,0.367
		c0.843,1.129,2.063,2.584,3.043,3.595c0.075,0.078,0.201-0.013,0.153-0.11l-1.952-3.625c-0.062-0.116-0.092-0.244-0.08-0.37
		c0.032-0.383,0.372-0.427,0.603-0.31c0.144,0.075,0.251,0.206,0.355,0.333c0.863,1.104,1.424,2.475,2.424,3.428
		c0.123,0.12,0.327,0.004,0.294-0.162l-0.535-2.777c-0.023-0.128-0.016-0.264,0.038-0.379c0.181-0.397,0.612-0.257,0.783,0.008
		c0.133,0.199,0.157,0.446,0.19,0.681c0.18,1.18,0.7,2.281,1.29,3.317c0.589,1.038,0.979,2.216,1.773,3.106
		c0.584,0.655,2.168,1.754,4.17,3.007v-9.794c0-3.705-1.235-7.096-3.279-9.728c-2.883,1.593-8.342,4.577-9.994,5.266
		c-0.758,0.315-1.553,0.638-2.083,1.265c-0.525,0.623-0.716,1.463-1.159,2.147c-0.413,0.637-1.038,1.125-1.378,1.805
		c-0.327,0.658-0.35,1.419-0.365,2.154c-0.292,0.145-0.706,0.08-0.929-0.161c-0.221-0.243-0.304-0.587-0.292-0.915
		c0.01-0.327,0.105-0.646,0.201-0.959c0.105-0.368,0.148-0.721,0.25-1.087c0.102-0.372,0.104-0.817-0.175-1.078
		c-0.179-0.166-0.438-0.218-0.68-0.196c-0.246,0.026-0.476,0.118-0.7,0.212c-1.623,0.677-3.21,1.451-4.76,2.281
		c-0.191,0.1-0.386,0.206-0.601,0.215c-0.213,0.013-0.449-0.096-0.511-0.3c-0.05-0.153,0.012-0.322,0.113-0.444
		c0.102-0.123,0.24-0.208,0.378-0.292l3.563-2.184c0.193-0.121,0.185-0.414-0.023-0.512c-0.163-0.083-0.362-0.048-0.541-0.016
		c-1.409,0.25-2.834,0.403-4.259,0.461c-0.212,0.009-0.422,0.015-0.619-0.066c-0.188-0.083-0.352-0.272-0.328-0.479
		c0.015-0.166,0.147-0.304,0.299-0.377c0.148-0.072,0.319-0.091,0.486-0.11c1.398-0.165,3.27-0.494,4.634-0.836
		c0.107-0.029,0.091-0.182-0.016-0.188l-4.119-0.12c-0.126-0.007-0.256-0.045-0.363-0.118c-0.309-0.22-0.179-0.537,0.035-0.676
		c0.142-0.089,0.303-0.119,0.468-0.141c1.389-0.196,2.856,0.005,4.184-0.384c0.163-0.048,0.167-0.281,0.006-0.339l-2.675-0.923
		c-0.121-0.043-0.235-0.118-0.309-0.222c-0.248-0.359,0.086-0.661,0.398-0.676c0.24-0.015,0.465,0.089,0.688,0.176
		c1.11,0.436,2.321,0.537,3.516,0.544c1.192,0.006,2.411,0.257,3.579,0.015c2.146-0.448,7.381-3.483,10.93-5.737
		c-2.19-1.528-4.795-2.425-7.598-2.425H93.369c-0.071,3.419-0.21,8.792-0.421,10.421c-0.102,0.813-0.225,1.662,0.056,2.434
		c0.276,0.768,0.908,1.354,1.278,2.08c0.344,0.676,0.455,1.464,0.875,2.095c0.407,0.611,1.055,1.013,1.684,1.391
		c-0.024,0.328-0.282,0.654-0.604,0.725c-0.32,0.07-0.658-0.032-0.937-0.204c-0.278-0.173-0.511-0.416-0.731-0.653
		c-0.264-0.277-0.547-0.491-0.816-0.761c-0.271-0.271-0.652-0.5-1.022-0.388c-0.232,0.07-0.405,0.27-0.507,0.494
		c-0.104,0.222-0.133,0.466-0.165,0.709c-0.227,1.747-0.352,3.505-0.407,5.267c-0.01,0.212-0.016,0.435-0.113,0.625
		c-0.098,0.19-0.309,0.342-0.519,0.293c-0.152-0.035-0.269-0.172-0.324-0.32c-0.056-0.149-0.062-0.313-0.063-0.472l-0.113-4.181
		c-0.004-0.23-0.263-0.367-0.453-0.237c-0.155,0.106-0.223,0.292-0.284,0.462c-0.487,1.345-1.065,2.655-1.731,3.922
		c-0.094,0.183-0.199,0.373-0.364,0.498c-0.167,0.125-0.409,0.17-0.582,0.049c-0.135-0.098-0.188-0.281-0.173-0.447
		c0.01-0.168,0.077-0.327,0.147-0.479c0.557-1.293,1.208-3.076,1.59-4.429c0.029-0.106-0.111-0.17-0.169-0.079l-2.163,3.503
		c-0.071,0.109-0.169,0.201-0.282,0.254c-0.35,0.163-0.557-0.109-0.57-0.367c-0.008-0.163,0.05-0.325,0.111-0.476
		c0.522-1.3,1.432-2.469,1.76-3.813c0.037-0.166-0.161-0.286-0.289-0.173l-2.141,1.853c-0.097,0.085-0.217,0.141-0.346,0.154
		c-0.436,0.04-0.528-0.403-0.384-0.684c0.107-0.211,0.308-0.356,0.495-0.506c0.933-0.742,1.624-1.743,2.227-2.772
		c0.604-1.03,1.431-1.958,1.809-3.09c0.674-2.06,0.669-7.992,0.498-12.185c-6.014,1.708-10.456,7.602-10.456,14.634v7.799
		c2.273,1.519,4.162,2.8,4.762,3.259c0.652,0.499,1.328,1.026,2.139,1.173c0.802,0.143,1.624-0.112,2.441-0.069
		c0.753,0.04,1.491,0.337,2.248,0.291c0.735-0.045,1.405-0.407,2.05-0.762c0.27,0.183,0.423,0.573,0.323,0.886
		c-0.101,0.311-0.355,0.556-0.644,0.709c-0.29,0.154-0.616,0.232-0.933,0.307c-0.373,0.089-0.701,0.228-1.069,0.327
		c-0.367,0.097-0.757,0.316-0.845,0.689c-0.058,0.236,0.032,0.488,0.173,0.686c0.144,0.2,0.338,0.351,0.533,0.499
		c1.399,1.067,2.86,2.054,4.359,2.984c0.182,0.112,0.367,0.23,0.484,0.409c0.115,0.178,0.142,0.438-0.006,0.596
		c-0.111,0.116-0.282,0.15-0.441,0.122c-0.157-0.027-0.3-0.104-0.439-0.179l-3.677-1.996c-0.203-0.109-0.447,0.047-0.432,0.276
		c0.016,0.187,0.139,0.337,0.259,0.479c0.92,1.092,1.767,2.25,2.532,3.458c0.109,0.175,0.221,0.36,0.244,0.566
		c0.028,0.205-0.058,0.439-0.244,0.525c-0.155,0.069-0.338,0.024-0.479-0.071c-0.137-0.094-0.24-0.233-0.338-0.367
		c-0.841-1.129-2.062-2.584-3.043-3.594c-0.073-0.078-0.205,0.014-0.151,0.11l1.952,3.625c0.058,0.115,0.088,0.242,0.077,0.371
		c-0.033,0.383-0.369,0.427-0.6,0.309c-0.144-0.075-0.257-0.205-0.356-0.334c-0.862-1.104-1.423-2.475-2.425-3.428
		c-0.123-0.118-0.326-0.004-0.292,0.163l0.532,2.778c0.026,0.126,0.015,0.259-0.041,0.377c-0.175,0.398-0.606,0.256-0.779-0.008
		c-0.131-0.2-0.159-0.447-0.193-0.681c-0.179-1.181-0.695-2.282-1.286-3.318c-0.588-1.036-0.981-2.217-1.776-3.106
		c-0.618-0.692-2.395-1.988-4.619-3.476v9.915c0,3.904,1.378,7.452,3.624,10.137c2.85-1.578,8.428-4.628,10.101-5.328
		c0.756-0.315,1.551-0.638,2.085-1.264c0.523-0.622,0.716-1.464,1.159-2.149c0.411-0.636,1.037-1.124,1.375-1.803
		c0.328-0.659,0.351-1.419,0.366-2.154c0.294-0.144,0.707-0.081,0.928,0.161c0.223,0.241,0.301,0.586,0.291,0.913
		c-0.011,0.328-0.104,0.647-0.197,0.96c-0.111,0.367-0.155,0.717-0.252,1.088c-0.102,0.37-0.104,0.815,0.177,1.077
		c0.177,0.166,0.438,0.221,0.682,0.195c0.238-0.025,0.469-0.116,0.695-0.212c1.626-0.677,3.213-1.451,4.761-2.28
		c0.19-0.102,0.386-0.206,0.603-0.217c0.211-0.011,0.447,0.097,0.511,0.3c0.044,0.155-0.012,0.323-0.115,0.444
		c-0.1,0.122-0.24,0.209-0.376,0.292l-3.563,2.186c-0.199,0.119-0.188,0.413,0.021,0.512c0.169,0.082,0.359,0.048,0.541,0.017
		c1.411-0.251,2.832-0.406,4.26-0.463c0.208-0.009,0.423-0.014,0.616,0.067c0.19,0.083,0.355,0.272,0.331,0.48
		c-0.018,0.166-0.146,0.304-0.298,0.375c-0.153,0.075-0.322,0.093-0.487,0.111c-1.4,0.165-3.27,0.495-4.635,0.837
		c-0.104,0.027-0.092,0.183,0.018,0.188l4.117,0.121c0.127,0.008,0.254,0.045,0.359,0.118c0.314,0.22,0.183,0.537-0.032,0.675
		c-0.139,0.089-0.306,0.119-0.471,0.142c-1.386,0.196-2.851-0.006-4.178,0.385c-0.163,0.049-0.169,0.28-0.007,0.339l2.676,0.922
		c0.119,0.043,0.232,0.118,0.307,0.224c0.25,0.357-0.084,0.659-0.402,0.676c-0.236,0.013-0.461-0.09-0.682-0.177
		c-1.111-0.437-2.325-0.536-3.52-0.543c-1.193-0.008-2.409-0.258-3.576-0.016c-2.139,0.445-7.341,3.46-10.89,5.711
		c2.085,1.328,4.508,2.102,7.103,2.102h17.669c0.071-3.425,0.21-8.499,0.409-10.074c0.107-0.813,0.231-1.661-0.049-2.433
		c-0.278-0.768-0.913-1.353-1.282-2.08c-0.344-0.677-0.453-1.465-0.873-2.095c-0.405-0.612-1.056-1.013-1.688-1.394
		c0.026-0.326,0.288-0.653,0.608-0.723c0.322-0.069,0.658,0.031,0.935,0.204c0.282,0.172,0.509,0.414,0.735,0.652
		c0.262,0.278,0.546,0.492,0.816,0.762c0.271,0.271,0.65,0.5,1.016,0.388c0.237-0.071,0.411-0.271,0.509-0.494
		c0.104-0.223,0.138-0.466,0.169-0.708c0.225-1.747,0.347-3.506,0.406-5.268c0.008-0.212,0.014-0.433,0.113-0.624
		c0.095-0.192,0.31-0.343,0.515-0.294c0.157,0.035,0.272,0.171,0.328,0.321c0.058,0.149,0.062,0.313,0.063,0.471l0.111,4.181
		c0.006,0.231,0.267,0.368,0.457,0.236c0.153-0.106,0.221-0.29,0.282-0.462c0.489-1.345,1.067-2.656,1.733-3.922
		c0.096-0.183,0.198-0.372,0.363-0.498c0.167-0.125,0.41-0.169,0.581-0.049c0.133,0.1,0.187,0.282,0.175,0.45
		c-0.012,0.166-0.08,0.325-0.147,0.478c-0.557,1.294-1.206,3.075-1.596,4.429c-0.026,0.106,0.117,0.17,0.175,0.079l2.162-3.502
		c0.072-0.11,0.167-0.201,0.282-0.255c0.349-0.163,0.553,0.11,0.571,0.367c0.006,0.163-0.052,0.325-0.113,0.477
		c-0.525,1.299-1.43,2.469-1.758,3.812c-0.041,0.167,0.159,0.286,0.288,0.173l2.14-1.852c0.099-0.085,0.218-0.143,0.348-0.155
		c0.433-0.039,0.524,0.401,0.388,0.685c-0.111,0.212-0.316,0.356-0.501,0.505c-0.933,0.743-1.624,1.744-2.23,2.773
		c-0.601,1.03-1.429,1.957-1.803,3.091c-0.653,1.985-0.672,7.561-0.519,11.716c5.795-1.862,10.023-7.651,10.023-14.514v-7.954
		C122.548,29.545,120.862,28.483,120.289,28.048z"/>
	<path fill="#FFFFFF" d="M115.1,41.556c0.374-1.134,1.202-2.061,1.803-3.091c0.606-1.029,1.298-2.03,2.23-2.773
		c0.185-0.149,0.39-0.293,0.501-0.505c0.137-0.283,0.045-0.724-0.388-0.685c-0.13,0.012-0.249,0.069-0.348,0.155l-2.14,1.852
		c-0.129,0.113-0.329-0.006-0.288-0.173c0.328-1.343,1.232-2.512,1.758-3.812c0.062-0.152,0.119-0.314,0.113-0.477
		c-0.019-0.256-0.223-0.53-0.571-0.367c-0.115,0.055-0.21,0.146-0.282,0.255l-2.162,3.502c-0.058,0.091-0.201,0.028-0.175-0.079
		c0.39-1.354,1.039-3.134,1.596-4.429c0.067-0.153,0.136-0.312,0.147-0.478c0.012-0.167-0.042-0.35-0.175-0.45
		c-0.171-0.12-0.414-0.076-0.581,0.049c-0.165,0.126-0.268,0.315-0.363,0.498c-0.666,1.266-1.244,2.577-1.733,3.922
		c-0.062,0.172-0.129,0.355-0.282,0.462c-0.19,0.131-0.451-0.005-0.457-0.236l-0.111-4.181c-0.002-0.158-0.006-0.322-0.063-0.471
		c-0.056-0.15-0.171-0.286-0.328-0.321c-0.205-0.048-0.42,0.103-0.515,0.294c-0.1,0.191-0.105,0.412-0.113,0.624
		c-0.06,1.761-0.182,3.521-0.406,5.268c-0.031,0.243-0.065,0.486-0.169,0.708c-0.098,0.223-0.271,0.423-0.509,0.494
		c-0.365,0.112-0.745-0.116-1.016-0.388c-0.271-0.271-0.555-0.484-0.816-0.762c-0.227-0.238-0.453-0.48-0.735-0.652
		c-0.276-0.173-0.612-0.273-0.935-0.204c-0.32,0.07-0.582,0.396-0.608,0.723c0.632,0.381,1.282,0.781,1.688,1.394
		c0.42,0.63,0.529,1.418,0.873,2.095c0.369,0.727,1.004,1.312,1.282,2.08c0.28,0.772,0.156,1.62,0.049,2.433
		c-0.199,1.575-0.338,6.649-0.409,10.074h0.117c1.393,0,2.733-0.226,4.004-0.634C114.428,49.117,114.446,43.541,115.1,41.556z"/>
	<path fill="#FFFFFF" d="M120.435,23.245c-0.795-0.89-1.185-2.069-1.773-3.106c-0.59-1.037-1.11-2.138-1.29-3.317
		c-0.033-0.235-0.058-0.482-0.19-0.681c-0.171-0.265-0.603-0.405-0.783-0.008c-0.054,0.115-0.062,0.25-0.038,0.379l0.535,2.777
		c0.033,0.166-0.171,0.281-0.294,0.162c-1-0.953-1.561-2.323-2.424-3.428c-0.104-0.128-0.212-0.258-0.355-0.333
		c-0.23-0.118-0.57-0.074-0.603,0.31c-0.012,0.126,0.019,0.254,0.08,0.37l1.952,3.625c0.048,0.097-0.078,0.188-0.153,0.11
		c-0.98-1.011-2.2-2.466-3.043-3.595c-0.098-0.133-0.199-0.272-0.338-0.367c-0.14-0.094-0.322-0.139-0.478-0.07
		c-0.187,0.086-0.274,0.32-0.246,0.526c0.023,0.206,0.137,0.39,0.246,0.565c0.766,1.209,1.612,2.365,2.53,3.458
		c0.119,0.141,0.245,0.292,0.261,0.479c0.016,0.229-0.23,0.386-0.434,0.277l-3.675-1.997c-0.14-0.077-0.284-0.153-0.441-0.179
		c-0.155-0.027-0.33,0.005-0.439,0.123c-0.147,0.156-0.123,0.417-0.008,0.595c0.117,0.178,0.304,0.296,0.484,0.409
		c1.499,0.93,2.962,1.915,4.361,2.985c0.193,0.147,0.39,0.299,0.533,0.498c0.139,0.197,0.224,0.451,0.171,0.687
		c-0.086,0.374-0.476,0.592-0.847,0.69c-0.37,0.098-0.698,0.236-1.065,0.326c-0.318,0.075-0.643,0.153-0.933,0.308
		c-0.288,0.154-0.547,0.398-0.646,0.71c-0.099,0.312,0.052,0.702,0.324,0.884c0.646-0.354,1.316-0.716,2.05-0.761
		c0.757-0.046,1.492,0.251,2.25,0.291c0.816,0.043,1.638-0.212,2.44-0.068c0.812,0.145,1.483,0.673,2.133,1.172
		c0.573,0.436,2.259,1.497,4.315,2.756v-4.552C122.603,25,121.019,23.9,120.435,23.245z"/>
	<path fill="#FFFFFF" d="M103.666,9.457c-1.194-0.008-2.405-0.108-3.516-0.544c-0.223-0.086-0.447-0.191-0.688-0.176
		c-0.313,0.015-0.646,0.317-0.398,0.676c0.073,0.104,0.188,0.179,0.309,0.222l2.675,0.923c0.161,0.058,0.157,0.291-0.006,0.339
		c-1.327,0.389-2.795,0.188-4.184,0.384c-0.165,0.022-0.326,0.052-0.468,0.141c-0.214,0.139-0.344,0.456-0.035,0.676
		c0.107,0.073,0.237,0.11,0.363,0.118l4.119,0.12c0.106,0.006,0.123,0.159,0.016,0.188c-1.364,0.343-3.235,0.671-4.634,0.836
		c-0.167,0.019-0.338,0.038-0.486,0.11c-0.151,0.073-0.284,0.211-0.299,0.377c-0.023,0.207,0.14,0.396,0.328,0.479
		c0.197,0.082,0.407,0.075,0.619,0.066c1.425-0.058,2.85-0.211,4.259-0.461c0.179-0.033,0.378-0.067,0.541,0.016
		c0.208,0.099,0.217,0.392,0.023,0.512l-3.563,2.184c-0.138,0.084-0.276,0.17-0.378,0.292c-0.102,0.122-0.163,0.292-0.113,0.444
		c0.062,0.204,0.298,0.313,0.511,0.3c0.215-0.01,0.409-0.115,0.601-0.215c1.55-0.83,3.137-1.604,4.76-2.281
		c0.225-0.094,0.454-0.187,0.7-0.212c0.242-0.022,0.501,0.03,0.68,0.196c0.278,0.261,0.276,0.707,0.175,1.078
		c-0.102,0.367-0.145,0.72-0.25,1.087c-0.096,0.313-0.191,0.632-0.201,0.959c-0.012,0.327,0.071,0.672,0.292,0.915
		c0.223,0.24,0.637,0.305,0.929,0.161c0.016-0.734,0.038-1.496,0.365-2.154c0.34-0.679,0.965-1.167,1.378-1.805
		c0.443-0.684,0.634-1.524,1.159-2.147c0.53-0.627,1.325-0.95,2.083-1.265c1.652-0.689,7.111-3.673,9.994-5.266
		c-0.902-1.161-1.967-2.169-3.15-2.995c-3.549,2.254-8.784,5.289-10.93,5.737C106.077,9.714,104.858,9.462,103.666,9.457z"/>
	<path fill="#FFFFFF" d="M88.725,14.008c-0.378,1.132-1.205,2.061-1.809,3.09c-0.603,1.029-1.294,2.03-2.227,2.772
		c-0.188,0.149-0.388,0.294-0.495,0.506c-0.145,0.281-0.052,0.724,0.384,0.684c0.129-0.013,0.249-0.069,0.346-0.154l2.141-1.853
		c0.128-0.113,0.326,0.007,0.289,0.173c-0.328,1.344-1.237,2.513-1.76,3.813c-0.062,0.151-0.119,0.313-0.111,0.476
		c0.014,0.257,0.221,0.53,0.57,0.367c0.113-0.054,0.211-0.145,0.282-0.254l2.163-3.503c0.058-0.091,0.198-0.028,0.169,0.079
		c-0.382,1.354-1.033,3.136-1.59,4.429c-0.07,0.152-0.138,0.312-0.147,0.479c-0.016,0.166,0.038,0.349,0.173,0.447
		c0.173,0.121,0.415,0.077,0.582-0.049c0.165-0.125,0.271-0.315,0.364-0.498c0.666-1.267,1.244-2.577,1.731-3.922
		c0.062-0.171,0.129-0.356,0.284-0.462c0.19-0.13,0.449,0.006,0.453,0.237l0.113,4.181c0.002,0.159,0.008,0.323,0.063,0.472
		c0.056,0.148,0.172,0.285,0.324,0.32c0.21,0.048,0.421-0.103,0.519-0.293c0.098-0.19,0.104-0.413,0.113-0.625
		c0.056-1.762,0.181-3.52,0.407-5.267c0.032-0.243,0.062-0.487,0.165-0.709c0.102-0.224,0.274-0.423,0.507-0.494
		c0.37-0.112,0.752,0.117,1.022,0.388c0.27,0.27,0.553,0.484,0.816,0.761c0.221,0.237,0.453,0.48,0.731,0.653
		c0.278,0.172,0.616,0.273,0.937,0.204c0.322-0.07,0.58-0.396,0.604-0.725c-0.629-0.378-1.276-0.78-1.684-1.391
		c-0.42-0.631-0.531-1.419-0.875-2.095c-0.37-0.727-1.002-1.312-1.278-2.08c-0.28-0.772-0.157-1.621-0.056-2.434
		c0.211-1.629,0.35-7.002,0.421-10.421h-0.578c-1.235,0-2.428,0.189-3.568,0.514C89.394,6.016,89.398,11.949,88.725,14.008z"/>
	<path fill="#FFFFFF" d="M83.386,32.319c0.795,0.889,1.188,2.07,1.776,3.106c0.591,1.037,1.107,2.138,1.286,3.318
		c0.034,0.233,0.063,0.481,0.193,0.681c0.173,0.264,0.604,0.406,0.779,0.008c0.056-0.118,0.067-0.251,0.041-0.377l-0.532-2.778
		c-0.034-0.167,0.169-0.281,0.292-0.163c1.002,0.953,1.563,2.324,2.425,3.428c0.1,0.129,0.213,0.259,0.356,0.334
		c0.23,0.118,0.566,0.074,0.6-0.309c0.011-0.129-0.02-0.255-0.077-0.371l-1.952-3.625c-0.054-0.096,0.078-0.188,0.151-0.11
		c0.981,1.01,2.202,2.465,3.043,3.594c0.098,0.133,0.201,0.272,0.338,0.367c0.142,0.095,0.324,0.14,0.479,0.071
		c0.187-0.086,0.272-0.32,0.244-0.525c-0.023-0.206-0.135-0.391-0.244-0.566c-0.766-1.208-1.612-2.365-2.532-3.458
		c-0.12-0.142-0.243-0.293-0.259-0.479c-0.016-0.229,0.229-0.386,0.432-0.276l3.677,1.996c0.14,0.076,0.282,0.152,0.439,0.179
		c0.159,0.028,0.33-0.006,0.441-0.122c0.147-0.157,0.121-0.417,0.006-0.596c-0.117-0.179-0.303-0.297-0.484-0.409
		c-1.499-0.93-2.96-1.917-4.359-2.984c-0.195-0.148-0.39-0.299-0.533-0.499c-0.141-0.198-0.23-0.45-0.173-0.686
		c0.088-0.374,0.478-0.592,0.845-0.689c0.368-0.1,0.696-0.238,1.069-0.327c0.316-0.075,0.643-0.153,0.933-0.307
		c0.288-0.154,0.543-0.398,0.644-0.709c0.1-0.313-0.054-0.703-0.323-0.886c-0.645,0.355-1.314,0.717-2.05,0.762
		c-0.757,0.046-1.495-0.251-2.248-0.291c-0.817-0.043-1.64,0.212-2.441,0.069c-0.811-0.146-1.486-0.674-2.139-1.173
		c-0.6-0.458-2.488-1.74-4.762-3.259v4.586C80.991,30.332,82.768,31.627,83.386,32.319z"/>
	<path fill="#FFFFFF" d="M100.154,46.109c1.194,0.007,2.408,0.106,3.52,0.543c0.221,0.087,0.445,0.19,0.682,0.177
		c0.318-0.017,0.652-0.319,0.402-0.676c-0.074-0.105-0.188-0.181-0.307-0.224l-2.676-0.922c-0.162-0.059-0.156-0.29,0.007-0.339
		c1.327-0.391,2.792-0.189,4.178-0.385c0.165-0.023,0.332-0.053,0.471-0.142c0.215-0.138,0.347-0.455,0.032-0.675
		c-0.105-0.073-0.232-0.11-0.359-0.118l-4.117-0.121c-0.109-0.005-0.121-0.161-0.018-0.188c1.365-0.342,3.234-0.672,4.635-0.837
		c0.165-0.018,0.334-0.037,0.487-0.111c0.151-0.071,0.28-0.208,0.298-0.375c0.024-0.208-0.141-0.397-0.331-0.48
		c-0.193-0.081-0.408-0.076-0.616-0.067c-1.428,0.058-2.849,0.212-4.26,0.463c-0.182,0.031-0.372,0.064-0.541-0.017
		c-0.209-0.099-0.221-0.393-0.021-0.512l3.563-2.186c0.136-0.083,0.276-0.17,0.376-0.292c0.104-0.122,0.159-0.29,0.115-0.444
		c-0.063-0.204-0.3-0.311-0.511-0.3c-0.217,0.011-0.412,0.115-0.603,0.217c-1.548,0.829-3.135,1.603-4.761,2.28
		c-0.227,0.096-0.457,0.187-0.695,0.212c-0.244,0.026-0.505-0.029-0.682-0.195c-0.28-0.261-0.278-0.707-0.177-1.077
		c0.097-0.371,0.141-0.721,0.252-1.088c0.094-0.313,0.187-0.632,0.197-0.96c0.01-0.327-0.068-0.672-0.291-0.913
		c-0.221-0.242-0.634-0.305-0.928-0.161c-0.016,0.734-0.038,1.495-0.366,2.154c-0.338,0.679-0.964,1.167-1.375,1.803
		c-0.443,0.685-0.636,1.527-1.159,2.149c-0.534,0.626-1.329,0.949-2.085,1.264c-1.673,0.7-7.251,3.75-10.101,5.328
		c0.954,1.141,2.064,2.123,3.298,2.909c3.549-2.25,8.751-5.266,10.89-5.711C97.745,45.851,98.961,46.101,100.154,46.109z"/>
</g>
</svg>
