<?xml version="1.0" encoding="utf-8"?>
<!-- Generator: Adobe Illustrator 16.0.0, SVG Export Plug-In . SVG Version: 6.00 Build 0)  -->
<!DOCTYPE svg PUBLIC "-//W3C//DTD SVG 1.1//EN" "http://www.w3.org/Graphics/SVG/1.1/DTD/svg11.dtd">
<svg version="1.1" id="Layer_1" xmlns="http://www.w3.org/2000/svg" xmlns:xlink="http://www.w3.org/1999/xlink" x="0px" y="0px"
	 width="402.498px" height="77.56px" viewBox="0 0 402.498 77.56" enable-background="new 0 0 402.498 77.56" xml:space="preserve">
<g>
	<g>
		<path d="M87.709,52.038H74.516V1.281h13.193V52.038z"/>
		<path d="M93.844,1.281h20.195c5.474,0.044,9.918,1.392,13.328,4.038c3.411,2.649,5.118,6.889,5.118,12.724
			c0,5.967-1.561,10.333-4.68,13.092c-3.119,2.761-7.551,4.141-13.296,4.141h-7.473v16.762H93.844V1.281z M107.037,24.572h2.224
			c2.378,0.045,4.554-0.191,6.529-0.708c1.974-0.513,2.961-2.322,2.961-5.418c0-3.219-0.941-5.111-2.827-5.68
			c-1.885-0.566-4.105-0.85-6.663-0.85h-2.224V24.572z"/>
		<path d="M145.004,1.281h12.99l10.3,27.128L179.2,1.281h13.127l7.674,50.757h-13.193l-3.703-29.216h-0.134l-12.185,29.216h-5.252
			l-11.646-29.216h-0.135l-4.242,29.216h-13.127L145.004,1.281z"/>
		<path d="M221.267,43.217l-3.499,8.82h-14.002l19.521-50.757h14.406l19.117,50.757h-14.07l-3.297-8.82H221.267z M230.489,16.964
			h-0.135l-5.452,16.158h10.973L230.489,16.964z"/>
		<path d="M286.831,31.237l15.951,20.8h-16.423l-12.454-19.522h-0.136v19.522h-13.193V1.281H280.3
			c5.025,0.044,9.224,1.313,12.59,3.802c3.364,2.491,5.048,6.453,5.048,11.881c0,3.501-0.954,6.611-2.861,9.325
			c-1.907,2.715-4.657,4.387-8.245,5.015V31.237z M273.77,24.033h1.28c0.223,0.046,0.447,0.068,0.673,0.068c0.225,0,0.426,0,0.605,0
			c1.977-0.091,3.78-0.549,5.419-1.38c1.637-0.829,2.457-2.479,2.457-4.949c0-2.493-0.82-4.161-2.457-5
			c-1.639-0.839-3.442-1.304-5.419-1.394c-0.18,0-0.381,0-0.605,0c-0.226,0-0.45,0-0.673,0h-1.28V24.033z"/>
		<path d="M324.051,43.217l-3.5,8.82h-14.002L326.07,1.281h14.406l19.118,50.757h-14.069l-3.299-8.82H324.051z M333.274,16.964
			h-0.134l-5.455,16.158h10.976L333.274,16.964z"/>
		<path d="M398.768,4.108l-5.252,10.233c-1.21-0.988-2.566-1.786-4.071-2.391c-1.505-0.606-3.062-0.909-4.68-0.909
			c-0.224,0-0.468,0.011-0.74,0.034c-0.269,0.022-0.537,0.079-0.806,0.167c-1.034,0.227-1.978,0.674-2.83,1.348
			c-0.851,0.673-1.277,1.572-1.277,2.693c0,1.077,0.404,1.94,1.211,2.592c0.808,0.65,1.684,1.178,2.627,1.581
			c0.357,0.135,0.706,0.259,1.044,0.371c0.335,0.113,0.66,0.213,0.975,0.304l3.367,0.942c3.544,1.077,6.517,2.638,8.919,4.677
			c2.398,2.044,3.6,5.129,3.6,9.258c0,0.179,0,0.358,0,0.538c0,0.18,0,0.36,0,0.539c-0.089,2.334-0.516,4.61-1.278,6.833
			c-0.764,2.221-2.087,4.138-3.971,5.756c-1.707,1.48-3.636,2.581-5.789,3.298c-2.155,0.717-4.354,1.166-6.597,1.346
			c-0.361,0-0.708,0.012-1.045,0.033c-0.335,0.022-0.661,0.035-0.977,0.035c-3.186,0-6.305-0.506-9.356-1.516
			c-3.052-1.009-5.879-2.41-8.482-4.207l5.654-10.702c1.66,1.479,3.468,2.736,5.42,3.77c1.953,1.033,4.049,1.547,6.294,1.547
			c0.09,0,0.18,0,0.271,0c0.09,0,0.177,0,0.269,0c1.48-0.09,2.826-0.55,4.039-1.381c1.212-0.828,1.818-2.074,1.818-3.735
			c0-1.255-0.507-2.265-1.515-3.029c-1.012-0.763-2.144-1.368-3.401-1.817c-0.537-0.178-1.077-0.348-1.612-0.505
			c-0.541-0.157-1.033-0.303-1.483-0.438c-0.09-0.044-0.192-0.079-0.304-0.102c-0.111-0.021-0.214-0.056-0.303-0.099
			c-3.994-1.124-7.181-2.56-9.56-4.31c-2.378-1.75-3.565-5.025-3.565-9.827c0-5.162,1.648-9.291,4.946-12.389
			C373.625,1.55,377.81,0,382.88,0c1.033,0,2.088,0.058,3.166,0.169c1.077,0.113,2.154,0.303,3.229,0.573
			c1.705,0.361,3.378,0.831,5.018,1.414c1.635,0.584,3.13,1.257,4.475,2.019V4.108z"/>
	</g>
	<g>
		<path d="M74.728,74.169V63.035h1.812v11.135H74.728z"/>
		<path d="M79.579,74.169V62.381h1.649v7.567l3.02-2.988h2.038l-3.271,3.177l3.583,4.032h-2.13l-3.24-3.718v3.718H79.579z"/>
		<path d="M94.979,74.169h-1.65v-0.938c-0.295,0.417-0.639,0.728-1.03,0.929c-0.395,0.205-0.844,0.305-1.351,0.305
			c-1.019,0-1.822-0.349-2.407-1.045s-0.878-1.652-0.878-2.864c0-1.15,0.299-2.079,0.896-2.787s1.38-1.06,2.343-1.06
			c0.589,0,1.092,0.122,1.511,0.366c0.418,0.247,0.724,0.601,0.916,1.063V66.96h1.65V74.169z M93.374,70.542
			c0-0.745-0.175-1.326-0.521-1.741c-0.348-0.417-0.833-0.625-1.457-0.625c-0.623,0-1.113,0.216-1.472,0.644
			c-0.357,0.429-0.535,1.023-0.535,1.784c0,0.764,0.172,1.355,0.517,1.771c0.344,0.416,0.831,0.623,1.461,0.623
			c0.593,0,1.076-0.226,1.448-0.676C93.187,71.871,93.374,71.276,93.374,70.542z"/>
		<path d="M98.225,74.169v-5.765h-1.263V66.96h1.263v-2.73h1.649v2.73h1.264v1.444h-1.264v5.765H98.225z"/>
		<path d="M109.92,74.169h-1.651v-0.938c-0.293,0.417-0.637,0.728-1.03,0.929c-0.393,0.205-0.843,0.305-1.35,0.305
			c-1.019,0-1.822-0.349-2.407-1.045c-0.586-0.696-0.878-1.652-0.878-2.864c0-1.15,0.299-2.079,0.897-2.787
			c0.598-0.708,1.378-1.06,2.343-1.06c0.587,0,1.091,0.122,1.51,0.366c0.418,0.247,0.724,0.601,0.915,1.063V66.96h1.651V74.169z
			 M108.314,70.542c0-0.745-0.173-1.326-0.521-1.741c-0.348-0.417-0.834-0.625-1.456-0.625c-0.624,0-1.114,0.216-1.473,0.644
			c-0.356,0.429-0.536,1.023-0.536,1.784c0,0.764,0.173,1.355,0.517,1.771c0.346,0.416,0.832,0.623,1.461,0.623
			c0.593,0,1.077-0.226,1.449-0.676C108.129,71.871,108.314,71.276,108.314,70.542z"/>
		<path d="M112.777,74.169V66.96h1.552v1.179c0.329-0.499,0.717-0.86,1.163-1.09c0.446-0.227,0.989-0.34,1.628-0.34
			c0.537,0,0.995,0.083,1.373,0.254c0.377,0.17,0.673,0.422,0.886,0.756c0.127,0.198,0.218,0.429,0.274,0.692
			c0.055,0.263,0.083,0.725,0.083,1.385v4.373h-1.666v-3.703c0-0.949-0.115-1.579-0.346-1.892c-0.231-0.311-0.64-0.468-1.229-0.468
			c-0.385,0-0.729,0.071-1.03,0.213c-0.302,0.143-0.539,0.343-0.711,0.603c-0.122,0.172-0.206,0.394-0.256,0.665
			c-0.047,0.271-0.071,0.703-0.071,1.297v3.285H112.777z"/>
		<path d="M129.621,69.172v4.997h-1.697V63.035h2.738c0.812,0,1.408,0.044,1.792,0.132c0.382,0.09,0.715,0.236,0.999,0.439
			c0.35,0.257,0.624,0.605,0.821,1.045c0.198,0.439,0.297,0.922,0.297,1.448c0,0.528-0.099,1.015-0.297,1.461
			c-0.197,0.446-0.472,0.797-0.821,1.049c-0.284,0.204-0.617,0.348-0.999,0.433c-0.384,0.088-0.98,0.131-1.792,0.131h-0.357H129.621
			z M129.734,67.689h0.464c1.004,0,1.674-0.109,2.008-0.326c0.334-0.219,0.502-0.605,0.502-1.156c0-0.594-0.179-1.012-0.536-1.256
			c-0.357-0.243-1.016-0.365-1.974-0.365h-0.464V67.689z"/>
		<path d="M143.042,70.808h-5.765c0.04,0.675,0.241,1.199,0.601,1.577c0.36,0.379,0.839,0.566,1.438,0.566
			c0.533,0,0.976-0.111,1.331-0.335c0.355-0.223,0.664-0.583,0.928-1.079l1.392,0.775c-0.405,0.725-0.908,1.266-1.505,1.62
			c-0.599,0.355-1.301,0.532-2.107,0.532c-1.155,0-2.076-0.352-2.761-1.058c-0.685-0.702-1.026-1.645-1.026-2.821
			c0-1.13,0.354-2.06,1.061-2.787c0.708-0.728,1.616-1.09,2.727-1.09c1.161,0,2.066,0.331,2.716,0.995
			c0.648,0.665,0.973,1.595,0.973,2.791V70.808z M141.331,69.698c-0.064-0.519-0.264-0.911-0.593-1.183
			c-0.33-0.272-0.78-0.408-1.354-0.408c-0.543,0-0.979,0.134-1.309,0.396c-0.329,0.265-0.559,0.662-0.691,1.195H141.331z"/>
		<path d="M146.987,74.169h-1.649V66.96h1.551v1.179c0.33-0.504,0.703-0.868,1.122-1.1s0.91-0.346,1.479-0.346
			c0.563,0,1.028,0.117,1.399,0.353c0.369,0.235,0.651,0.594,0.844,1.076c0.38-0.497,0.784-0.858,1.214-1.087
			c0.428-0.229,0.915-0.342,1.463-0.342c0.477,0,0.893,0.086,1.248,0.262c0.354,0.175,0.631,0.43,0.829,0.764
			c0.091,0.158,0.158,0.346,0.201,0.563c0.043,0.219,0.064,0.53,0.064,0.936v0.578v4.373h-1.65v-3.703
			c0-0.97-0.103-1.606-0.308-1.915c-0.205-0.305-0.571-0.458-1.099-0.458c-0.649,0-1.112,0.205-1.389,0.619
			c-0.276,0.415-0.414,1.137-0.414,2.172v3.285h-1.666v-3.703c0-0.894-0.107-1.512-0.323-1.857
			c-0.216-0.345-0.587-0.516-1.113-0.516c-0.325,0-0.622,0.073-0.891,0.219c-0.27,0.148-0.482,0.351-0.639,0.61
			c-0.102,0.167-0.173,0.372-0.214,0.615c-0.04,0.244-0.061,0.691-0.061,1.347V74.169z"/>
		<path d="M161.141,66.96v4.061c0,0.7,0.144,1.201,0.434,1.505c0.289,0.305,0.757,0.458,1.406,0.458
			c0.648,0,1.118-0.153,1.407-0.458c0.288-0.304,0.434-0.805,0.434-1.505V66.96h1.65v3.565c0,1.379-0.277,2.381-0.829,3.005
			c-0.553,0.623-1.435,0.935-2.647,0.935c-1.231,0-2.124-0.31-2.677-0.927c-0.553-0.62-0.828-1.622-0.828-3.013V66.96H161.141z"/>
		<path d="M174.409,62.381h1.651v11.788h-1.651v-0.938c-0.293,0.417-0.637,0.728-1.029,0.929c-0.394,0.205-0.843,0.305-1.351,0.305
			c-1.019,0-1.82-0.349-2.406-1.045c-0.587-0.696-0.879-1.652-0.879-2.864c0-1.15,0.299-2.079,0.897-2.787
			c0.598-0.708,1.379-1.06,2.342-1.06c0.589,0,1.091,0.122,1.511,0.366c0.418,0.247,0.724,0.601,0.915,1.063V62.381z
			 M174.455,70.542c0-0.745-0.173-1.326-0.521-1.741c-0.348-0.417-0.833-0.625-1.456-0.625s-1.114,0.216-1.472,0.644
			c-0.357,0.429-0.536,1.023-0.536,1.784c0,0.764,0.172,1.355,0.517,1.771s0.832,0.623,1.461,0.623c0.598,0,1.082-0.225,1.453-0.674
			C174.271,71.875,174.455,71.282,174.455,70.542z"/>
		<path d="M185.703,74.169h-1.651v-0.938c-0.294,0.417-0.638,0.728-1.03,0.929c-0.393,0.205-0.843,0.305-1.35,0.305
			c-1.019,0-1.822-0.349-2.407-1.045c-0.586-0.696-0.879-1.652-0.879-2.864c0-1.15,0.299-2.079,0.897-2.787
			c0.598-0.708,1.379-1.06,2.343-1.06c0.588,0,1.092,0.122,1.51,0.366c0.419,0.247,0.724,0.601,0.916,1.063V66.96h1.651V74.169z
			 M184.098,70.542c0-0.745-0.173-1.326-0.521-1.741c-0.349-0.417-0.834-0.625-1.457-0.625c-0.624,0-1.114,0.216-1.472,0.644
			c-0.357,0.429-0.536,1.023-0.536,1.784c0,0.764,0.173,1.355,0.517,1.771c0.345,0.416,0.832,0.623,1.46,0.623
			c0.595,0,1.077-0.226,1.449-0.676C183.911,71.871,184.098,71.276,184.098,70.542z"/>
		<path d="M192.873,62.784h1.292l-5.452,12.829h-1.294L192.873,62.784z"/>
		<path d="M195.737,63.841c0-0.278,0.104-0.52,0.309-0.724c0.205-0.202,0.45-0.303,0.734-0.303c0.293,0,0.538,0.097,0.733,0.292
			s0.293,0.44,0.293,0.734c0,0.293-0.099,0.54-0.297,0.741s-0.441,0.301-0.729,0.301c-0.284,0-0.529-0.104-0.734-0.309
			C195.841,64.369,195.737,64.125,195.737,63.841z M195.959,74.169V66.96h1.65v7.209H195.959z"/>
		<path d="M215.038,68.671c-0.021-0.087-0.053-0.326-0.099-0.716c-0.041-0.325-0.077-0.593-0.106-0.807
			c-0.046,0.255-0.111,0.509-0.194,0.761c-0.084,0.253-0.188,0.512-0.315,0.776l-2.913,5.933l-2.913-6.056
			c-0.121-0.248-0.227-0.488-0.316-0.722c-0.088-0.233-0.165-0.463-0.23-0.692c-0.006,0.233-0.024,0.478-0.058,0.734
			s-0.082,0.522-0.148,0.803l-1.194,5.483h-1.666l2.632-11.605l3.286,7.025c0.05,0.113,0.128,0.298,0.232,0.557
			c0.104,0.258,0.229,0.577,0.376,0.958c0.106-0.318,0.273-0.726,0.502-1.217c0.062-0.13,0.106-0.233,0.137-0.305l3.21-7.019
			l2.692,11.605h-1.681L215.038,68.671z"/>
		<path d="M226.619,74.169h-1.649v-0.938c-0.295,0.417-0.639,0.728-1.031,0.929c-0.393,0.205-0.844,0.305-1.35,0.305
			c-1.02,0-1.822-0.349-2.408-1.045c-0.585-0.696-0.878-1.652-0.878-2.864c0-1.15,0.299-2.079,0.897-2.787
			c0.598-0.708,1.379-1.06,2.343-1.06c0.589,0,1.091,0.122,1.509,0.366c0.419,0.247,0.725,0.601,0.918,1.063V66.96h1.649V74.169z
			 M225.015,70.542c0-0.745-0.174-1.326-0.521-1.741c-0.348-0.417-0.832-0.625-1.456-0.625s-1.114,0.216-1.473,0.644
			c-0.356,0.429-0.535,1.023-0.535,1.784c0,0.764,0.172,1.355,0.518,1.771c0.345,0.416,0.831,0.623,1.46,0.623
			c0.595,0,1.076-0.226,1.449-0.676C224.828,71.871,225.015,71.276,225.015,70.542z"/>
		<path d="M229.333,63.841c0-0.278,0.104-0.52,0.308-0.724c0.205-0.202,0.451-0.303,0.734-0.303c0.294,0,0.539,0.097,0.733,0.292
			c0.195,0.195,0.293,0.44,0.293,0.734c0,0.293-0.099,0.54-0.295,0.741c-0.199,0.201-0.442,0.301-0.731,0.301
			c-0.283,0-0.529-0.104-0.734-0.309C229.437,64.369,229.333,64.125,229.333,63.841z M229.553,77.56v-10.6h1.652v10.6H229.553z"/>
		<path d="M241.081,70.808h-5.765c0.04,0.675,0.241,1.199,0.601,1.577c0.36,0.379,0.84,0.566,1.438,0.566
			c0.531,0,0.976-0.111,1.33-0.335c0.355-0.223,0.664-0.583,0.929-1.079l1.392,0.775c-0.406,0.725-0.907,1.266-1.506,1.62
			c-0.599,0.355-1.301,0.532-2.107,0.532c-1.155,0-2.076-0.352-2.76-1.058c-0.686-0.702-1.027-1.645-1.027-2.821
			c0-1.13,0.354-2.06,1.061-2.787c0.707-0.728,1.617-1.09,2.727-1.09c1.161,0,2.067,0.331,2.714,0.995
			c0.65,0.665,0.975,1.595,0.975,2.791V70.808z M239.369,69.698c-0.065-0.519-0.263-0.911-0.592-1.183
			c-0.33-0.272-0.781-0.408-1.354-0.408c-0.541,0-0.979,0.134-1.307,0.396c-0.33,0.265-0.562,0.662-0.693,1.195H239.369z"/>
		<path d="M243.453,74.169V62.381h1.649v11.788H243.453z"/>
		<path d="M247.894,63.841c0-0.278,0.103-0.52,0.308-0.724c0.204-0.202,0.448-0.303,0.734-0.303c0.293,0,0.538,0.097,0.733,0.292
			c0.194,0.195,0.292,0.44,0.292,0.734c0,0.293-0.098,0.54-0.295,0.741c-0.199,0.201-0.442,0.301-0.73,0.301
			c-0.286,0-0.53-0.104-0.734-0.309C247.996,64.369,247.894,64.125,247.894,63.841z M248.114,74.169V66.96h1.649v7.209H248.114z"/>
		<path d="M251.868,72.862l1.369-0.747c0.103,0.361,0.289,0.636,0.563,0.822c0.274,0.188,0.626,0.281,1.058,0.281
			c0.368,0,0.659-0.085,0.87-0.254c0.209-0.171,0.315-0.402,0.315-0.696c0-0.39-0.376-0.726-1.126-1.005
			c-0.254-0.091-0.449-0.167-0.585-0.227c-0.771-0.319-1.31-0.645-1.616-0.975s-0.461-0.73-0.461-1.201
			c0-0.644,0.253-1.166,0.757-1.567c0.505-0.399,1.174-0.6,2.005-0.6c0.557,0,1.035,0.101,1.433,0.308
			c0.399,0.205,0.689,0.497,0.872,0.879l-1.172,0.806c-0.085-0.229-0.237-0.41-0.453-0.544c-0.214-0.134-0.464-0.202-0.748-0.202
			c-0.314,0-0.567,0.076-0.757,0.227c-0.191,0.147-0.285,0.346-0.285,0.594c0,0.376,0.426,0.719,1.276,1.028
			c0.27,0.096,0.477,0.176,0.624,0.235c0.664,0.264,1.14,0.562,1.428,0.895c0.285,0.332,0.428,0.747,0.428,1.244
			c0,0.718-0.26,1.283-0.782,1.69c-0.522,0.408-1.242,0.612-2.16,0.612c-0.705,0-1.29-0.133-1.756-0.395
			C252.497,73.808,252.133,73.405,251.868,72.862z"/>
		<path d="M267.016,69.186v4.983h-1.697V63.035h2.526c0.74,0,1.314,0.049,1.723,0.145s0.757,0.257,1.046,0.479
			c0.344,0.27,0.61,0.615,0.798,1.042c0.188,0.426,0.282,0.894,0.282,1.398c0,0.894-0.217,1.591-0.646,2.097
			c-0.431,0.504-1.066,0.808-1.909,0.908l3.833,5.065h-2.046l-3.704-4.983H267.016z M267.129,67.78h0.327
			c0.959,0,1.595-0.11,1.909-0.334c0.315-0.223,0.473-0.618,0.473-1.186c0-0.615-0.168-1.047-0.508-1.298
			c-0.336-0.251-0.962-0.377-1.874-0.377h-0.327V67.78z"/>
		<path d="M280.992,74.169h-1.65v-0.938c-0.294,0.417-0.637,0.728-1.029,0.929c-0.395,0.205-0.844,0.305-1.351,0.305
			c-1.018,0-1.821-0.349-2.406-1.045c-0.586-0.696-0.879-1.652-0.879-2.864c0-1.15,0.298-2.079,0.896-2.787s1.38-1.06,2.342-1.06
			c0.59,0,1.093,0.122,1.512,0.366c0.418,0.247,0.723,0.601,0.915,1.063V66.96h1.65V74.169z M279.388,70.542
			c0-0.745-0.174-1.326-0.52-1.741c-0.348-0.417-0.834-0.625-1.457-0.625c-0.624,0-1.114,0.216-1.473,0.644
			c-0.355,0.429-0.535,1.023-0.535,1.784c0,0.764,0.172,1.355,0.518,1.771c0.344,0.416,0.83,0.623,1.459,0.623
			c0.595,0,1.077-0.226,1.449-0.676C279.202,71.871,279.388,71.276,279.388,70.542z"/>
		<path d="M285.448,66.96v4.061c0,0.7,0.145,1.201,0.433,1.505c0.29,0.305,0.758,0.458,1.408,0.458c0.647,0,1.117-0.153,1.405-0.458
			c0.289-0.304,0.435-0.805,0.435-1.505V66.96h1.65v3.565c0,1.379-0.276,2.381-0.828,3.005c-0.554,0.623-1.437,0.935-2.648,0.935
			c-1.23,0-2.123-0.31-2.677-0.927c-0.553-0.62-0.828-1.622-0.828-3.013V66.96H285.448z"/>
		<path d="M298.717,62.381h1.651v11.788h-1.651v-0.938c-0.293,0.417-0.636,0.728-1.03,0.929c-0.393,0.205-0.842,0.305-1.35,0.305
			c-1.019,0-1.822-0.349-2.407-1.045c-0.586-0.696-0.878-1.652-0.878-2.864c0-1.15,0.299-2.079,0.898-2.787
			c0.598-0.708,1.379-1.06,2.342-1.06c0.588,0,1.09,0.122,1.51,0.366c0.419,0.247,0.724,0.601,0.915,1.063V62.381z M298.764,70.542
			c0-0.745-0.174-1.326-0.521-1.741c-0.347-0.417-0.831-0.625-1.456-0.625c-0.624,0-1.114,0.216-1.471,0.644
			c-0.358,0.429-0.537,1.023-0.537,1.784c0,0.764,0.173,1.355,0.516,1.771c0.346,0.416,0.832,0.623,1.461,0.623
			c0.599,0,1.083-0.225,1.454-0.674C298.577,71.875,298.764,71.282,298.764,70.542z"/>
		<path d="M303.226,74.169V62.381h1.553v5.758c0.329-0.499,0.716-0.86,1.163-1.09c0.446-0.227,0.988-0.34,1.627-0.34
			c0.538,0,0.996,0.083,1.373,0.254c0.378,0.17,0.673,0.422,0.886,0.756c0.126,0.198,0.219,0.429,0.274,0.692
			c0.056,0.263,0.083,0.725,0.083,1.385v4.373h-1.664v-3.703c0-0.949-0.116-1.579-0.347-1.892c-0.23-0.311-0.641-0.468-1.229-0.468
			c-0.386,0-0.729,0.071-1.031,0.213c-0.301,0.143-0.538,0.343-0.71,0.603c-0.123,0.172-0.208,0.394-0.255,0.665
			c-0.05,0.271-0.073,0.703-0.073,1.297v3.285H303.226z"/>
		<path d="M319.744,74.169h-1.651v-0.938c-0.294,0.417-0.638,0.728-1.03,0.929c-0.393,0.205-0.842,0.305-1.35,0.305
			c-1.019,0-1.821-0.349-2.407-1.045s-0.879-1.652-0.879-2.864c0-1.15,0.3-2.079,0.898-2.787c0.598-0.708,1.379-1.06,2.343-1.06
			c0.587,0,1.09,0.122,1.509,0.366c0.418,0.247,0.724,0.601,0.916,1.063V66.96h1.651V74.169z M318.138,70.542
			c0-0.745-0.172-1.326-0.52-1.741c-0.348-0.417-0.833-0.625-1.455-0.625c-0.625,0-1.116,0.216-1.474,0.644
			c-0.356,0.429-0.536,1.023-0.536,1.784c0,0.764,0.174,1.355,0.518,1.771c0.345,0.416,0.831,0.623,1.461,0.623
			c0.594,0,1.076-0.226,1.447-0.676C317.952,71.871,318.138,71.276,318.138,70.542z"/>
		<path d="M322.989,74.169v-5.765h-1.263V66.96h1.263v-2.73h1.65v2.73h1.263v1.444h-1.263v5.765H322.989z"/>
		<path d="M329.498,66.96v4.061c0,0.7,0.146,1.201,0.435,1.505c0.288,0.305,0.757,0.458,1.406,0.458
			c0.648,0,1.118-0.153,1.406-0.458c0.289-0.304,0.434-0.805,0.434-1.505V66.96h1.65v3.565c0,1.379-0.275,2.381-0.828,3.005
			c-0.554,0.623-1.436,0.935-2.646,0.935c-1.233,0-2.125-0.31-2.679-0.927c-0.552-0.62-0.828-1.622-0.828-3.013V66.96H329.498z"/>
		<path d="M337.71,74.169V62.381h1.651v11.788H337.71z"/>
		<path d="M347.07,71.942l1.444-0.671c0.137,0.497,0.387,0.879,0.754,1.138c0.364,0.262,0.83,0.392,1.397,0.392
			c0.539,0,0.965-0.149,1.282-0.449c0.317-0.299,0.476-0.7,0.476-1.2c0-0.655-0.543-1.239-1.629-1.75
			c-0.151-0.076-0.268-0.132-0.349-0.167c-1.228-0.599-2.046-1.14-2.452-1.624c-0.409-0.484-0.613-1.076-0.613-1.776
			c0-0.908,0.308-1.643,0.924-2.205c0.617-0.563,1.425-0.845,2.423-0.845c0.821,0,1.509,0.158,2.061,0.476
			c0.553,0.318,0.936,0.773,1.149,1.366l-1.416,0.729c-0.222-0.349-0.467-0.606-0.732-0.77c-0.268-0.162-0.571-0.242-0.917-0.242
			c-0.486,0-0.873,0.126-1.16,0.38c-0.286,0.253-0.429,0.594-0.429,1.019c0,0.671,0.629,1.294,1.886,1.871
			c0.096,0.046,0.174,0.082,0.228,0.106c1.1,0.508,1.856,1.004,2.267,1.488c0.411,0.483,0.615,1.087,0.615,1.813
			c0,1.054-0.331,1.893-0.996,2.513c-0.663,0.621-1.561,0.932-2.69,0.932c-0.949,0-1.727-0.218-2.332-0.653
			S347.257,72.752,347.07,71.942z"/>
		<path d="M357.936,77.56h-1.695l1.977-4.015l-2.646-6.585h1.824l1.324,3.733c0.076,0.228,0.144,0.461,0.201,0.695
			c0.058,0.236,0.106,0.477,0.142,0.718c0.065-0.253,0.222-0.654,0.471-1.207l0.038-0.092l1.779-3.848h1.789L357.936,77.56z"/>
		<path d="M371.395,74.169h-1.649v-0.938c-0.295,0.417-0.637,0.728-1.03,0.929c-0.393,0.205-0.843,0.305-1.351,0.305
			c-1.019,0-1.821-0.349-2.406-1.045c-0.587-0.696-0.879-1.652-0.879-2.864c0-1.15,0.299-2.079,0.897-2.787
			c0.6-0.708,1.379-1.06,2.342-1.06c0.589,0,1.091,0.122,1.512,0.366c0.418,0.247,0.723,0.601,0.915,1.063V66.96h1.649V74.169z
			 M369.791,70.542c0-0.745-0.174-1.326-0.521-1.741c-0.348-0.417-0.831-0.625-1.455-0.625s-1.114,0.216-1.473,0.644
			c-0.357,0.429-0.536,1.023-0.536,1.784c0,0.764,0.173,1.355,0.518,1.771c0.344,0.416,0.83,0.623,1.459,0.623
			c0.595,0,1.077-0.226,1.451-0.676C369.604,71.871,369.791,71.276,369.791,70.542z"/>
		<path d="M375.904,62.381v5.758c0.192-0.456,0.5-0.811,0.924-1.059c0.423-0.248,0.929-0.371,1.519-0.371
			c0.957,0,1.734,0.352,2.33,1.06s0.894,1.637,0.894,2.787c0,1.212-0.293,2.168-0.879,2.864c-0.585,0.696-1.388,1.045-2.406,1.045
			c-0.508,0-0.957-0.1-1.351-0.305c-0.393-0.201-0.736-0.512-1.03-0.929v0.938h-1.65V62.381H375.904z M375.851,70.542
			c0,0.734,0.189,1.329,0.567,1.78c0.377,0.45,0.866,0.676,1.465,0.676c0.623,0,1.105-0.207,1.448-0.623
			c0.342-0.416,0.513-1.008,0.513-1.771c0-0.761-0.179-1.355-0.536-1.784c-0.358-0.428-0.849-0.644-1.471-0.644
			c-0.624,0-1.111,0.208-1.462,0.625C376.026,69.215,375.851,69.796,375.851,70.542z"/>
		<path d="M390.68,74.169h-1.649v-0.938c-0.295,0.417-0.639,0.728-1.031,0.929c-0.394,0.205-0.842,0.305-1.351,0.305
			c-1.019,0-1.82-0.349-2.406-1.045s-0.877-1.652-0.877-2.864c0-1.15,0.297-2.079,0.896-2.787s1.38-1.06,2.342-1.06
			c0.589,0,1.093,0.122,1.512,0.366c0.418,0.247,0.723,0.601,0.916,1.063V66.96h1.649V74.169z M389.075,70.542
			c0-0.745-0.174-1.326-0.521-1.741c-0.347-0.417-0.833-0.625-1.456-0.625c-0.624,0-1.116,0.216-1.473,0.644
			c-0.358,0.429-0.535,1.023-0.535,1.784c0,0.764,0.172,1.355,0.517,1.771c0.346,0.416,0.831,0.623,1.46,0.623
			c0.593,0,1.076-0.226,1.449-0.676C388.889,71.871,389.075,71.276,389.075,70.542z"/>
		<path d="M395.188,62.381v5.758c0.192-0.456,0.5-0.811,0.924-1.059c0.423-0.248,0.929-0.371,1.517-0.371
			c0.958,0,1.735,0.352,2.332,1.06s0.893,1.637,0.893,2.787c0,1.212-0.292,2.168-0.878,2.864c-0.585,0.696-1.389,1.045-2.407,1.045
			c-0.506,0-0.956-0.1-1.35-0.305c-0.393-0.201-0.736-0.512-1.03-0.929v0.938h-1.649V62.381H395.188z M395.136,70.542
			c0,0.734,0.188,1.329,0.566,1.78c0.377,0.45,0.864,0.676,1.465,0.676c0.622,0,1.105-0.207,1.448-0.623
			c0.342-0.416,0.513-1.008,0.513-1.771c0-0.761-0.18-1.355-0.535-1.784c-0.358-0.428-0.849-0.644-1.473-0.644
			c-0.623,0-1.11,0.208-1.46,0.625C395.31,69.215,395.136,69.796,395.136,70.542z"/>
	</g>
	<g>
		<path fill="#16A85C" d="M56.158,38.519c-0.863-0.72-1.753-1.472-2.825-1.682c-1.063-0.208-2.153,0.161-3.234,0.098
			c-1.002-0.06-1.977-0.483-2.979-0.417c-0.973,0.062-1.858,0.583-2.712,1.089c-0.363-0.261-0.563-0.819-0.43-1.268
			c0.131-0.445,0.473-0.793,0.854-1.018c0.385-0.218,0.814-0.333,1.232-0.438c0.49-0.127,0.922-0.326,1.411-0.467
			c0.493-0.139,1.008-0.454,1.123-0.988c0.069-0.338-0.041-0.7-0.229-0.984c-0.188-0.286-0.448-0.503-0.704-0.715
			c-1.852-1.534-3.789-2.944-5.773-4.278c-0.24-0.162-0.487-0.33-0.643-0.586c-0.155-0.255-0.184-0.629,0.009-0.852
			c0.146-0.168,0.374-0.216,0.584-0.178c0.206,0.036,0.397,0.149,0.582,0.259l4.866,2.861c0.271,0.156,0.596-0.067,0.573-0.398
			c-0.018-0.263-0.185-0.481-0.343-0.685c-1.216-1.565-2.337-3.221-3.351-4.956c-0.145-0.253-0.294-0.515-0.327-0.809
			c-0.033-0.295,0.08-0.632,0.327-0.755c0.203-0.097,0.446-0.032,0.633,0.102c0.182,0.136,0.315,0.335,0.447,0.526
			c1.116,1.621,2.731,3.702,4.03,5.152c0.099,0.11,0.265-0.019,0.203-0.159l-2.586-5.193c-0.082-0.165-0.123-0.349-0.104-0.532
			c0.04-0.549,0.492-0.611,0.792-0.441c0.194,0.106,0.336,0.292,0.474,0.479c1.142,1.582,1.885,3.545,3.211,4.911
			c0.162,0.17,0.434,0.007,0.388-0.231l-0.705-3.982c-0.032-0.182-0.023-0.375,0.049-0.542c0.24-0.569,0.813-0.368,1.036,0.012
			c0.177,0.286,0.21,0.644,0.255,0.977c0.234,1.69,0.926,3.27,1.708,4.754c0.775,1.487,1.293,3.179,2.348,4.454
			c0.727,0.881,2.619,2.327,5.047,3.988V22.407c0-5.382-1.706-10.297-4.517-14.055c-3.938,2.35-10.518,6.225-12.587,7.16
			c-1.004,0.449-2.058,0.913-2.757,1.811c-0.697,0.892-0.95,2.098-1.539,3.08c-0.547,0.91-1.372,1.611-1.822,2.584
			c-0.435,0.942-0.465,2.035-0.482,3.086c-0.389,0.209-0.936,0.113-1.229-0.23c-0.294-0.347-0.403-0.842-0.391-1.313
			c0.016-0.467,0.143-0.923,0.27-1.374c0.14-0.525,0.198-1.03,0.33-1.559c0.137-0.53,0.14-1.17-0.233-1.543
			c-0.235-0.24-0.58-0.313-0.897-0.279c-0.326,0.035-0.63,0.168-0.928,0.303c-2.148,0.969-4.251,2.079-6.304,3.269
			c-0.251,0.144-0.511,0.295-0.795,0.311c-0.281,0.016-0.596-0.14-0.677-0.432c-0.066-0.218,0.017-0.461,0.153-0.636
			c0.131-0.174,0.316-0.299,0.496-0.416l4.721-3.135c0.257-0.174,0.246-0.59-0.032-0.732c-0.217-0.12-0.478-0.068-0.714-0.022
			c-1.867,0.358-3.754,0.579-5.642,0.66c-0.281,0.014-0.563,0.021-0.819-0.095c-0.249-0.119-0.466-0.391-0.435-0.687
			c0.019-0.238,0.195-0.436,0.394-0.54c0.199-0.103,0.425-0.131,0.646-0.158c1.851-0.236,4.327-0.706,6.135-1.197
			c0.14-0.042,0.123-0.262-0.022-0.271l-5.453-0.171c-0.166-0.01-0.339-0.065-0.479-0.17c-0.412-0.315-0.24-0.768,0.045-0.968
			c0.188-0.129,0.4-0.17,0.62-0.201c1.839-0.282,3.78,0.004,5.539-0.553c0.217-0.07,0.222-0.404,0.009-0.485l-3.544-1.324
			c-0.157-0.062-0.311-0.167-0.408-0.318c-0.329-0.51,0.112-0.945,0.529-0.967c0.316-0.021,0.615,0.128,0.91,0.252
			c1.47,0.624,3.074,0.769,4.655,0.779c1.577,0.008,3.194,0.369,4.738,0.023c2.702-0.61,9.093-4.568,13.755-7.731
			c-2.773-1.981-6.033-3.125-9.523-3.125H20.489c-0.097,4.899-0.276,11.889-0.54,14.094c-0.137,1.166-0.297,2.384,0.072,3.489
			c0.367,1.1,1.203,1.941,1.695,2.98c0.453,0.968,0.602,2.1,1.158,3.003c0.538,0.881,1.397,1.453,2.23,1.996
			c-0.032,0.469-0.378,0.936-0.802,1.04c-0.425,0.097-0.872-0.046-1.243-0.295c-0.368-0.246-0.673-0.593-0.968-0.935
			c-0.348-0.396-0.723-0.704-1.081-1.091c-0.358-0.386-0.863-0.717-1.352-0.556c-0.308,0.103-0.54,0.391-0.674,0.708
			c-0.136,0.319-0.176,0.669-0.216,1.016c-0.303,2.506-0.468,5.024-0.539,7.548c-0.014,0.305-0.021,0.625-0.15,0.896
			c-0.128,0.276-0.408,0.491-0.686,0.421c-0.203-0.054-0.356-0.248-0.431-0.46c-0.075-0.212-0.082-0.448-0.085-0.675l-0.148-5.993
			c-0.006-0.33-0.349-0.524-0.602-0.339c-0.206,0.152-0.295,0.416-0.377,0.663c-0.646,1.927-1.41,3.806-2.291,5.618
			c-0.128,0.267-0.265,0.537-0.484,0.719c-0.222,0.177-0.542,0.242-0.771,0.064c-0.179-0.14-0.251-0.398-0.228-0.64
			c0.011-0.238,0.103-0.469,0.195-0.686c0.734-1.855,1.599-4.407,2.104-6.348c0.041-0.153-0.148-0.244-0.224-0.112l-2.865,5.021
			c-0.093,0.156-0.223,0.288-0.374,0.365c-0.463,0.233-0.735-0.157-0.754-0.524c-0.01-0.234,0.066-0.465,0.146-0.685
			c0.692-1.863,1.896-3.541,2.331-5.464c0.049-0.236-0.213-0.41-0.385-0.247l-2.831,2.654c-0.132,0.123-0.29,0.202-0.462,0.22
			c-0.572,0.059-0.699-0.575-0.507-0.978c0.142-0.306,0.408-0.512,0.656-0.725c1.235-1.065,2.152-2.5,2.949-3.973
			c0.8-1.478,1.895-2.807,2.393-4.432c0.852-2.808,0.888-10.649,0.693-16.579C7.32,4.312,1.645,12.583,1.645,22.407v11.023
			c2.796,2.021,5.076,3.703,5.829,4.326c0.866,0.714,1.758,1.469,2.831,1.679c1.063,0.204,2.151-0.162,3.233-0.097
			c1,0.057,1.977,0.481,2.98,0.416c0.972-0.066,1.858-0.585,2.711-1.094c0.359,0.264,0.563,0.822,0.431,1.271
			c-0.134,0.441-0.475,0.796-0.854,1.015c-0.386,0.222-0.815,0.334-1.234,0.441c-0.494,0.128-0.928,0.328-1.416,0.465
			c-0.49,0.145-1.004,0.458-1.117,0.991c-0.078,0.34,0.041,0.701,0.226,0.984c0.19,0.285,0.45,0.503,0.708,0.716
			c1.851,1.529,3.786,2.94,5.772,4.276c0.239,0.158,0.487,0.333,0.643,0.587c0.152,0.254,0.186,0.628-0.009,0.854
			c-0.146,0.167-0.374,0.21-0.584,0.174c-0.208-0.039-0.398-0.147-0.583-0.257l-4.871-2.86c-0.266-0.158-0.589,0.069-0.569,0.396
			c0.02,0.27,0.186,0.483,0.342,0.688c1.219,1.565,2.34,3.221,3.354,4.956c0.144,0.25,0.292,0.515,0.325,0.811
			c0.035,0.294-0.077,0.632-0.325,0.75c-0.206,0.1-0.449,0.034-0.634-0.1c-0.181-0.132-0.316-0.335-0.449-0.524
			c-1.114-1.617-2.729-3.704-4.027-5.15c-0.1-0.112-0.271,0.017-0.203,0.157l2.587,5.193c0.077,0.167,0.116,0.347,0.102,0.532
			c-0.043,0.549-0.49,0.609-0.792,0.439c-0.191-0.104-0.342-0.291-0.472-0.477c-1.142-1.583-1.886-3.548-3.212-4.909
			c-0.162-0.172-0.433-0.007-0.387,0.232l0.704,3.977c0.034,0.183,0.018,0.374-0.056,0.545c-0.234,0.568-0.804,0.366-1.032-0.012
			c-0.174-0.288-0.21-0.639-0.255-0.977c-0.235-1.694-0.921-3.271-1.702-4.756c-0.78-1.486-1.299-3.178-2.354-4.451
			c-0.772-0.938-2.919-2.649-5.641-4.633v13.86c0,5.501,1.78,10.516,4.702,14.303c3.873-2.315,10.856-6.438,12.996-7.41
			c0.998-0.449,2.054-0.911,2.76-1.81c0.695-0.893,0.949-2.1,1.537-3.081c0.545-0.911,1.374-1.612,1.82-2.585
			c0.436-0.941,0.463-2.033,0.485-3.084c0.388-0.208,0.937-0.114,1.229,0.229c0.294,0.347,0.397,0.841,0.386,1.312
			c-0.015,0.467-0.135,0.923-0.264,1.374c-0.145,0.524-0.204,1.029-0.334,1.561c-0.133,0.529-0.137,1.167,0.235,1.54
			c0.233,0.242,0.579,0.317,0.903,0.28c0.318-0.035,0.621-0.167,0.924-0.302c2.153-0.971,4.25-2.083,6.304-3.27
			c0.251-0.146,0.508-0.293,0.793-0.312c0.281-0.015,0.595,0.141,0.68,0.431c0.059,0.223-0.019,0.465-0.153,0.64
			c-0.132,0.174-0.316,0.299-0.497,0.418l-4.72,3.131c-0.265,0.173-0.246,0.59,0.03,0.733c0.221,0.114,0.476,0.071,0.714,0.023
			c1.869-0.358,3.753-0.579,5.642-0.661c0.276-0.013,0.562-0.022,0.815,0.096c0.254,0.116,0.472,0.39,0.438,0.686
			c-0.022,0.238-0.194,0.434-0.394,0.54c-0.204,0.104-0.425,0.13-0.646,0.157c-1.855,0.238-4.328,0.708-6.136,1.199
			c-0.14,0.039-0.124,0.262,0.021,0.271l5.455,0.172c0.165,0.01,0.334,0.062,0.475,0.17c0.416,0.312,0.241,0.767-0.042,0.966
			c-0.186,0.128-0.408,0.173-0.625,0.204c-1.835,0.282-3.775-0.009-5.534,0.551c-0.215,0.068-0.221,0.402-0.007,0.485l3.542,1.323
			c0.16,0.06,0.309,0.169,0.405,0.32c0.332,0.51-0.111,0.944-0.531,0.966c-0.313,0.021-0.61-0.126-0.904-0.251
			c-1.47-0.628-3.078-0.771-4.661-0.78c-1.578-0.011-3.188-0.372-4.735-0.026c-2.759,0.626-9.37,4.743-14.053,7.937
			c2.709,1.856,5.86,2.923,9.228,2.923h23.183c0.012,0,0.023-0.001,0.034-0.001c0.096-4.898,0.276-11.891,0.538-14.094
			c0.14-1.165,0.303-2.383-0.068-3.487c-0.367-1.102-1.208-1.939-1.696-2.979c-0.455-0.972-0.603-2.102-1.157-3.005
			c-0.536-0.879-1.397-1.453-2.233-1.997c0.029-0.47,0.382-0.936,0.805-1.034c0.425-0.102,0.873,0.043,1.238,0.289
			c0.371,0.247,0.676,0.595,0.973,0.938c0.349,0.397,0.724,0.701,1.082,1.088c0.356,0.39,0.862,0.719,1.346,0.557
			c0.312-0.102,0.542-0.388,0.674-0.707c0.137-0.317,0.179-0.669,0.22-1.016c0.299-2.506,0.462-5.023,0.539-7.547
			c0.011-0.308,0.02-0.624,0.15-0.896c0.127-0.277,0.41-0.492,0.682-0.426c0.209,0.053,0.362,0.249,0.435,0.465
			c0.077,0.212,0.084,0.446,0.087,0.672l0.144,5.994c0.009,0.333,0.354,0.527,0.604,0.34c0.206-0.152,0.296-0.415,0.377-0.663
			c0.646-1.928,1.412-3.808,2.293-5.618c0.125-0.266,0.267-0.533,0.482-0.716c0.224-0.181,0.543-0.243,0.77-0.068
			c0.176,0.143,0.249,0.401,0.23,0.642c-0.015,0.239-0.104,0.466-0.195,0.683c-0.733,1.855-1.595,4.409-2.11,6.349
			c-0.036,0.154,0.152,0.246,0.229,0.115l2.865-5.02c0.092-0.16,0.221-0.289,0.372-0.367c0.461-0.234,0.733,0.156,0.757,0.523
			c0.01,0.234-0.069,0.468-0.149,0.688c-0.697,1.859-1.896,3.535-2.329,5.46c-0.054,0.239,0.213,0.409,0.385,0.247l2.832-2.652
			c0.129-0.119,0.29-0.203,0.458-0.222c0.575-0.057,0.698,0.576,0.513,0.98c-0.146,0.305-0.416,0.514-0.661,0.726
			c-1.233,1.063-2.152,2.496-2.951,3.973c-0.797,1.475-1.896,2.805-2.39,4.43c-0.845,2.777-0.889,10.479-0.702,16.384
			c7.428-2.717,12.814-10.82,12.814-20.395V42.153C58.889,40.487,56.871,39.107,56.158,38.519z"/>
		<path fill="#FFFFFF" d="M49.284,57.876c0.493-1.625,1.593-2.955,2.39-4.43c0.799-1.477,1.718-2.909,2.951-3.973
			c0.245-0.212,0.515-0.421,0.661-0.726c0.186-0.404,0.063-1.037-0.513-0.98c-0.168,0.019-0.329,0.103-0.458,0.222l-2.832,2.652
			c-0.172,0.162-0.438-0.008-0.385-0.247c0.434-1.925,1.632-3.601,2.329-5.46c0.08-0.22,0.159-0.453,0.149-0.688
			c-0.023-0.367-0.296-0.758-0.757-0.523c-0.151,0.078-0.28,0.207-0.372,0.367l-2.865,5.02c-0.077,0.131-0.266,0.039-0.229-0.115
			c0.516-1.939,1.377-4.493,2.11-6.349c0.091-0.217,0.181-0.443,0.195-0.683c0.019-0.24-0.055-0.499-0.23-0.642
			c-0.227-0.175-0.546-0.112-0.77,0.068c-0.216,0.183-0.357,0.45-0.482,0.716c-0.881,1.811-1.646,3.69-2.293,5.618
			c-0.081,0.248-0.171,0.511-0.377,0.663c-0.251,0.188-0.596-0.007-0.604-0.34l-0.144-5.994c-0.003-0.226-0.01-0.46-0.087-0.672
			c-0.072-0.216-0.226-0.412-0.435-0.465c-0.271-0.066-0.555,0.148-0.682,0.426c-0.131,0.271-0.14,0.588-0.15,0.896
			c-0.077,2.523-0.24,5.041-0.539,7.547c-0.041,0.347-0.083,0.698-0.22,1.016c-0.132,0.319-0.362,0.605-0.674,0.707
			c-0.483,0.162-0.989-0.167-1.346-0.557c-0.358-0.387-0.733-0.69-1.082-1.088c-0.297-0.344-0.602-0.691-0.973-0.938
			c-0.365-0.246-0.813-0.391-1.238-0.289c-0.423,0.099-0.775,0.564-0.805,1.034c0.836,0.544,1.697,1.118,2.233,1.997
			c0.555,0.903,0.702,2.033,1.157,3.005c0.488,1.04,1.329,1.878,1.696,2.979c0.371,1.104,0.208,2.322,0.068,3.487
			c-0.262,2.203-0.442,9.195-0.538,14.094c1.894-0.004,3.72-0.344,5.436-0.973C48.396,68.355,48.439,60.654,49.284,57.876z"/>
		<path fill="#FFFFFF" d="M56.35,31.634c-1.055-1.275-1.572-2.966-2.348-4.454c-0.782-1.484-1.474-3.063-1.708-4.754
			c-0.045-0.333-0.078-0.691-0.255-0.977c-0.224-0.38-0.796-0.581-1.036-0.012c-0.072,0.167-0.081,0.36-0.049,0.542l0.705,3.982
			c0.046,0.238-0.226,0.402-0.388,0.231c-1.326-1.365-2.069-3.329-3.211-4.911c-0.138-0.187-0.279-0.372-0.474-0.479
			c-0.3-0.169-0.752-0.107-0.792,0.441c-0.019,0.183,0.022,0.367,0.104,0.532l2.586,5.193c0.062,0.14-0.104,0.27-0.203,0.159
			c-1.299-1.45-2.914-3.531-4.03-5.152c-0.132-0.191-0.266-0.39-0.447-0.526c-0.187-0.134-0.43-0.199-0.633-0.102
			c-0.247,0.124-0.36,0.46-0.327,0.755c0.033,0.294,0.183,0.556,0.327,0.809c1.014,1.735,2.135,3.391,3.351,4.956
			c0.158,0.204,0.325,0.421,0.343,0.685c0.022,0.332-0.302,0.555-0.573,0.398l-4.866-2.861c-0.185-0.11-0.376-0.223-0.582-0.259
			c-0.21-0.038-0.438,0.01-0.584,0.178c-0.192,0.223-0.164,0.597-0.009,0.852c0.155,0.256,0.402,0.424,0.643,0.586
			c1.984,1.334,3.922,2.744,5.773,4.278c0.256,0.212,0.516,0.429,0.704,0.715c0.188,0.284,0.298,0.646,0.229,0.984
			c-0.115,0.535-0.63,0.85-1.123,0.988c-0.489,0.141-0.921,0.34-1.411,0.467c-0.418,0.105-0.848,0.22-1.232,0.438
			c-0.382,0.225-0.724,0.573-0.854,1.018c-0.134,0.449,0.066,1.007,0.43,1.268c0.854-0.506,1.739-1.027,2.712-1.089
			c1.002-0.066,1.977,0.357,2.979,0.417c1.081,0.063,2.172-0.306,3.234-0.098c1.072,0.21,1.962,0.962,2.825,1.682
			c0.713,0.588,2.73,1.968,5.238,3.634v-6.53C58.969,33.961,57.076,32.516,56.35,31.634z"/>
		<path fill="#FFFFFF" d="M34.143,11.87c-1.581-0.01-3.186-0.155-4.655-0.779c-0.295-0.124-0.594-0.272-0.91-0.252
			c-0.417,0.022-0.858,0.457-0.529,0.967c0.098,0.151,0.251,0.256,0.408,0.318L32,13.449c0.213,0.081,0.208,0.415-0.009,0.485
			c-1.759,0.557-3.7,0.271-5.539,0.553c-0.22,0.031-0.433,0.072-0.62,0.201c-0.285,0.201-0.457,0.653-0.045,0.968
			c0.14,0.105,0.313,0.16,0.479,0.17l5.453,0.171c0.146,0.009,0.162,0.229,0.022,0.271c-1.808,0.491-4.284,0.961-6.135,1.197
			c-0.222,0.027-0.447,0.055-0.646,0.158c-0.198,0.104-0.375,0.302-0.394,0.54c-0.031,0.296,0.186,0.568,0.435,0.687
			c0.257,0.115,0.538,0.109,0.819,0.095c1.888-0.082,3.774-0.302,5.642-0.66c0.236-0.046,0.497-0.097,0.714,0.022
			c0.278,0.142,0.289,0.558,0.032,0.732l-4.721,3.135c-0.18,0.117-0.365,0.242-0.496,0.416c-0.137,0.175-0.22,0.418-0.153,0.636
			c0.081,0.292,0.396,0.448,0.677,0.432c0.284-0.016,0.544-0.167,0.795-0.311c2.053-1.19,4.155-2.3,6.304-3.269
			c0.298-0.134,0.602-0.268,0.928-0.303c0.317-0.034,0.662,0.04,0.897,0.279c0.373,0.373,0.37,1.013,0.233,1.543
			c-0.132,0.529-0.19,1.034-0.33,1.559c-0.127,0.451-0.254,0.907-0.27,1.374c-0.013,0.471,0.097,0.966,0.391,1.313
			c0.294,0.343,0.841,0.439,1.229,0.23c0.018-1.051,0.048-2.145,0.482-3.086c0.45-0.973,1.275-1.674,1.822-2.584
			c0.589-0.981,0.842-2.188,1.539-3.08c0.699-0.898,1.753-1.362,2.757-1.811c2.069-0.936,8.649-4.811,12.587-7.16
			c-1.223-1.634-2.651-3.052-4.244-4.19c-4.662,3.163-11.053,7.121-13.755,7.731C37.337,12.239,35.72,11.878,34.143,11.87z"/>
		<path fill="#FFFFFF" d="M14.354,18.393c-0.498,1.625-1.593,2.954-2.393,4.432c-0.797,1.474-1.714,2.908-2.949,3.973
			c-0.248,0.213-0.515,0.419-0.656,0.725c-0.192,0.403-0.065,1.037,0.507,0.978c0.172-0.018,0.33-0.097,0.462-0.22l2.831-2.654
			c0.172-0.163,0.434,0.011,0.385,0.247c-0.436,1.924-1.639,3.601-2.331,5.464c-0.08,0.219-0.156,0.45-0.146,0.685
			c0.019,0.367,0.291,0.757,0.754,0.524c0.151-0.078,0.281-0.209,0.374-0.365l2.865-5.021c0.075-0.131,0.265-0.041,0.224,0.112
			c-0.506,1.94-1.37,4.493-2.104,6.348c-0.093,0.217-0.185,0.448-0.195,0.686c-0.023,0.241,0.049,0.5,0.228,0.64
			c0.229,0.177,0.549,0.112,0.771-0.064c0.22-0.183,0.356-0.453,0.484-0.719c0.881-1.812,1.646-3.691,2.291-5.618
			c0.082-0.248,0.171-0.511,0.377-0.663c0.253-0.186,0.596,0.009,0.602,0.339l0.148,5.993c0.003,0.227,0.01,0.463,0.085,0.675
			c0.074,0.212,0.228,0.407,0.431,0.46c0.277,0.069,0.558-0.145,0.686-0.421c0.129-0.271,0.137-0.591,0.15-0.896
			c0.071-2.524,0.236-5.042,0.539-7.548c0.04-0.346,0.08-0.697,0.216-1.016c0.134-0.317,0.366-0.605,0.674-0.708
			c0.488-0.161,0.993,0.17,1.352,0.556c0.358,0.388,0.733,0.695,1.081,1.091c0.295,0.342,0.6,0.689,0.968,0.935
			c0.371,0.249,0.818,0.392,1.243,0.295c0.424-0.104,0.77-0.57,0.802-1.04c-0.833-0.542-1.692-1.114-2.23-1.996
			c-0.557-0.903-0.705-2.036-1.158-3.003c-0.492-1.039-1.328-1.88-1.695-2.98c-0.369-1.104-0.209-2.323-0.072-3.489
			c0.264-2.205,0.443-9.195,0.54-14.094h-0.56c-1.692,0-3.327,0.274-4.883,0.777C15.241,7.744,15.205,15.585,14.354,18.393z"/>
		<path fill="#FFFFFF" d="M7.285,44.638c1.055,1.273,1.573,2.965,2.354,4.451c0.781,1.485,1.467,3.062,1.702,4.756
			c0.045,0.338,0.081,0.688,0.255,0.977c0.229,0.378,0.798,0.58,1.032,0.012c0.073-0.171,0.09-0.362,0.056-0.545l-0.704-3.977
			c-0.046-0.239,0.225-0.404,0.387-0.232c1.326,1.361,2.07,3.326,3.212,4.909c0.13,0.186,0.28,0.372,0.472,0.477
			c0.302,0.17,0.749,0.109,0.792-0.439c0.015-0.186-0.024-0.365-0.102-0.532L14.153,49.3c-0.068-0.141,0.104-0.27,0.203-0.157
			c1.299,1.446,2.913,3.533,4.027,5.15c0.133,0.189,0.269,0.393,0.449,0.524c0.185,0.134,0.428,0.199,0.634,0.1
			c0.248-0.118,0.36-0.456,0.325-0.75c-0.033-0.296-0.182-0.561-0.325-0.811c-1.014-1.735-2.135-3.391-3.354-4.956
			c-0.156-0.204-0.322-0.418-0.342-0.688c-0.02-0.326,0.304-0.554,0.569-0.396l4.871,2.86c0.185,0.109,0.375,0.218,0.583,0.257
			c0.21,0.036,0.438-0.007,0.584-0.174c0.194-0.226,0.161-0.6,0.009-0.854c-0.155-0.254-0.403-0.429-0.643-0.587
			c-1.986-1.336-3.922-2.747-5.772-4.276c-0.258-0.213-0.518-0.431-0.708-0.716c-0.185-0.283-0.304-0.645-0.226-0.984
			c0.113-0.533,0.627-0.847,1.117-0.991c0.488-0.137,0.922-0.337,1.416-0.465c0.419-0.107,0.849-0.22,1.234-0.441
			c0.379-0.219,0.72-0.573,0.854-1.015c0.132-0.449-0.071-1.008-0.431-1.271c-0.853,0.509-1.739,1.027-2.711,1.094
			c-1.004,0.065-1.98-0.359-2.98-0.416c-1.082-0.065-2.17,0.301-3.233,0.097c-1.073-0.21-1.965-0.965-2.831-1.679
			c-0.753-0.623-3.033-2.304-5.829-4.326v6.575C4.366,41.989,6.513,43.701,7.285,44.638z"/>
		<path fill="#FFFFFF" d="M29.49,64.401c1.583,0.01,3.191,0.152,4.661,0.78c0.294,0.125,0.592,0.271,0.904,0.251
			c0.42-0.021,0.863-0.456,0.531-0.966c-0.097-0.151-0.245-0.261-0.405-0.32l-3.542-1.323c-0.214-0.083-0.208-0.417,0.007-0.485
			c1.759-0.56,3.699-0.269,5.534-0.551c0.217-0.031,0.439-0.076,0.625-0.204c0.283-0.199,0.458-0.654,0.042-0.966
			c-0.141-0.108-0.31-0.16-0.475-0.17l-5.455-0.172c-0.146-0.009-0.161-0.231-0.021-0.271c1.808-0.491,4.28-0.961,6.136-1.199
			c0.221-0.027,0.441-0.054,0.646-0.157c0.199-0.106,0.371-0.302,0.394-0.54c0.033-0.296-0.185-0.569-0.438-0.686
			c-0.254-0.118-0.539-0.108-0.815-0.096c-1.889,0.082-3.772,0.303-5.642,0.661c-0.238,0.048-0.493,0.091-0.714-0.023
			c-0.276-0.144-0.295-0.561-0.03-0.733l4.72-3.131c0.181-0.119,0.365-0.244,0.497-0.418c0.135-0.175,0.212-0.417,0.153-0.64
			c-0.085-0.29-0.398-0.445-0.68-0.431c-0.285,0.019-0.542,0.165-0.793,0.312c-2.054,1.187-4.15,2.299-6.304,3.27
			c-0.303,0.135-0.605,0.267-0.924,0.302c-0.324,0.037-0.67-0.038-0.903-0.28c-0.372-0.373-0.368-1.011-0.235-1.54
			c0.13-0.531,0.189-1.036,0.334-1.561c0.129-0.451,0.249-0.907,0.264-1.374c0.012-0.471-0.092-0.965-0.386-1.312
			c-0.293-0.344-0.842-0.438-1.229-0.229c-0.022,1.051-0.05,2.143-0.485,3.084c-0.446,0.973-1.275,1.674-1.82,2.585
			c-0.588,0.981-0.842,2.188-1.537,3.081c-0.706,0.898-1.762,1.36-2.76,1.81c-2.14,0.972-9.123,5.095-12.996,7.41
			c1.257,1.629,2.727,3.027,4.355,4.143c4.683-3.193,11.294-7.311,14.053-7.937C26.303,64.029,27.912,64.39,29.49,64.401z"/>
	</g>
</g>
</svg>
